<svg width="120" height="33" viewBox="0 0 120 33" fill="none" xmlns="http://www.w3.org/2000/svg">
<path d="M18.9144 3.12137C18.9144 2.5274 18.9143 2.00249 18.8858 1.53284C18.8716 1.077 18.8431 0.607348 18.8146 0.137695C18.9429 0.151509 19.0711 0.165322 19.2279 0.179135C19.3847 0.192949 19.5415 0.192949 19.7268 0.192949C20.0404 0.192949 20.3825 0.192949 20.7245 0.165322C21.0666 0.137695 21.4087 0.137695 21.7223 0.137695C22.0359 0.137695 22.3637 0.165322 22.6345 0.234389C22.9053 0.303455 23.1476 0.400148 23.3472 0.524468C23.5467 0.662601 23.7035 0.828361 23.8033 1.03556C23.9173 1.24276 23.9601 1.50521 23.9601 1.79529C23.9601 2.08537 23.9031 2.34783 23.7748 2.55502C23.6465 2.76222 23.4897 2.9418 23.3187 3.07993C23.1334 3.21806 22.9481 3.32857 22.7343 3.41145C22.5205 3.49433 22.3352 3.54958 22.1641 3.57721V3.60484C22.3352 3.60484 22.5347 3.64628 22.7628 3.71534C22.9908 3.78441 23.2046 3.89492 23.4184 4.03305C23.6323 4.17118 23.8033 4.36457 23.9458 4.58558C24.0884 4.80659 24.1596 5.08286 24.1596 5.41438C24.1596 5.80115 24.0884 6.13267 23.9458 6.40894C23.8033 6.6852 23.6037 6.90622 23.3614 7.07198C23.1191 7.23774 22.8483 7.36206 22.5347 7.43112C22.2212 7.50019 21.9076 7.52782 21.5655 7.52782C21.2662 7.52782 20.9954 7.52782 20.7388 7.52782C20.4822 7.52782 20.2114 7.52782 19.9406 7.52782H19.3277C19.1139 7.52782 18.9429 7.52782 18.8288 7.55544C18.8573 7.11342 18.8858 6.65758 18.9001 6.18793C18.9144 5.73209 18.9286 5.19337 18.9286 4.5994V3.13518L18.9144 3.12137ZM22.3352 2.01631C22.3352 1.85055 22.3209 1.68479 22.2782 1.53284C22.2354 1.38089 22.1641 1.24276 22.0786 1.13225C21.9931 1.02175 21.8648 0.925054 21.708 0.869801C21.5655 0.800734 21.3802 0.773108 21.1521 0.773108C20.9954 0.773108 20.8813 0.773108 20.8101 0.773108C20.753 0.773108 20.6818 0.773108 20.6105 0.800734C20.5963 1.06319 20.582 1.33945 20.582 1.60191C20.582 1.87817 20.582 2.09919 20.582 2.29257C20.582 2.48596 20.582 2.66553 20.582 2.8451C20.582 3.02468 20.582 3.20425 20.582 3.38382H21.0809C21.2377 3.38382 21.3945 3.3562 21.537 3.30094C21.6938 3.24569 21.8221 3.16281 21.9361 3.0523C22.0501 2.9418 22.1499 2.80366 22.2212 2.62409C22.2924 2.44452 22.3352 2.25113 22.3352 2.01631ZM22.4207 5.48345C22.4207 4.98617 22.3067 4.61321 22.0644 4.36457C21.8363 4.11593 21.4942 3.99161 21.0524 3.99161C20.9526 3.99161 20.8528 3.99161 20.7816 3.99161C20.7103 3.99161 20.639 3.99161 20.5678 3.99161C20.5678 4.14356 20.5678 4.2955 20.5678 4.46126C20.5678 4.62702 20.5678 4.82041 20.5678 5.04142C20.5678 5.20718 20.5678 5.38675 20.5678 5.56633C20.5678 5.7459 20.5678 5.92547 20.5678 6.09123C20.5678 6.25699 20.5678 6.42275 20.5678 6.56089C20.5678 6.69902 20.5678 6.82334 20.5678 6.92003C20.6675 6.92003 20.7673 6.92003 20.8528 6.93385C20.9383 6.93385 21.0524 6.93385 21.1807 6.93385C21.3374 6.93385 21.4942 6.90622 21.651 6.83715C21.8078 6.76809 21.9218 6.67139 22.0359 6.54707C22.1499 6.42275 22.2354 6.27081 22.3067 6.09123C22.3779 5.91166 22.4065 5.70446 22.4065 5.46963L22.4207 5.48345Z" fill="#4195AB"/>
<path d="M25.984 3.85391C25.984 3.32901 26.0838 2.81792 26.2834 2.36208C26.4829 1.89242 26.768 1.49184 27.1386 1.13269C27.5092 0.787359 27.951 0.511092 28.4784 0.303893C29.0058 0.0966932 29.5902 0 30.2316 0C30.8302 0 31.3719 0.0828799 31.885 0.234826C32.3981 0.386773 32.84 0.635412 33.2106 0.939305C33.5811 1.25701 33.8805 1.6576 34.1085 2.14106C34.3223 2.62453 34.4364 3.19087 34.4364 3.8401C34.4364 4.37882 34.3366 4.8761 34.1228 5.34575C33.909 5.8154 33.6239 6.21599 33.2391 6.56132C32.8542 6.90666 32.4266 7.18292 31.8992 7.37631C31.3861 7.56969 30.816 7.66639 30.1888 7.66639C29.6044 7.66639 29.0485 7.59732 28.5354 7.45919C28.0223 7.32105 27.5804 7.10004 27.1956 6.78234C26.8107 6.46463 26.5114 6.07786 26.2976 5.59439C26.0696 5.11093 25.9698 4.53077 25.9698 3.85391H25.984ZM32.6404 3.61909C32.6404 3.14943 32.5834 2.73504 32.4694 2.36208C32.3553 1.98912 32.1843 1.68522 31.9705 1.42277C31.7567 1.16032 31.5001 0.966932 31.2008 0.828799C30.9015 0.690666 30.5737 0.621599 30.2173 0.621599C29.8467 0.621599 29.5046 0.704479 29.2053 0.884052C28.906 1.06362 28.6494 1.29845 28.4499 1.60234C28.2361 1.90624 28.0793 2.25157 27.9795 2.66597C27.8655 3.06656 27.8227 3.50858 27.8227 3.96442C27.8227 4.54458 27.8798 5.02805 28.008 5.41482C28.1363 5.8154 28.3074 6.13311 28.5212 6.36794C28.735 6.60276 28.9773 6.78234 29.2623 6.89284C29.5474 7.00335 29.8467 7.0586 30.1461 7.0586C30.4739 7.0586 30.8017 6.98954 31.101 6.8514C31.4004 6.71327 31.6712 6.50607 31.8992 6.2298C32.1273 5.95354 32.3126 5.59439 32.4409 5.16618C32.5834 4.73797 32.6404 4.22687 32.6404 3.6329V3.61909Z" fill="#4195AB"/>
<path d="M36.717 3.12137C36.717 2.5274 36.717 2.00249 36.6885 1.53284C36.6742 1.077 36.6457 0.607348 36.6172 0.137695C36.7455 0.151509 36.8737 0.165322 37.0305 0.179135C37.1873 0.192949 37.3441 0.192949 37.5294 0.192949C37.7717 0.192949 38.0425 0.192949 38.3561 0.165322C38.6697 0.137695 39.0545 0.137695 39.5391 0.137695C40.1806 0.137695 40.7507 0.192949 41.2781 0.303455C41.8054 0.413961 42.2473 0.607348 42.6322 0.869801C43.0027 1.13225 43.3021 1.4914 43.5159 1.93343C43.7297 2.37545 43.8294 2.9418 43.8294 3.63246C43.8294 4.22644 43.7297 4.76515 43.5301 5.24862C43.3306 5.73209 43.0455 6.14649 42.7034 6.478C42.3471 6.82334 41.948 7.07198 41.4776 7.25155C41.0215 7.43112 40.5226 7.514 39.9953 7.514C39.4394 7.514 38.969 7.514 38.5699 7.514C38.1708 7.514 37.843 7.514 37.5437 7.514H37.0448C36.9023 7.514 36.7597 7.514 36.6314 7.54163C36.6599 7.0996 36.6885 6.64376 36.7027 6.17411C36.717 5.71827 36.7312 5.17955 36.7312 4.58558V3.12137H36.717ZM38.3704 5.37294V6.02217C38.3704 6.22937 38.3704 6.42275 38.3704 6.58851C38.3704 6.75427 38.3704 6.87859 38.3704 6.92003C38.4844 6.92003 38.6127 6.93384 38.7695 6.94766C38.9263 6.94766 39.1115 6.94766 39.3396 6.94766C40.1806 6.94766 40.8362 6.67139 41.3208 6.11886C41.8055 5.56633 42.0478 4.73753 42.0478 3.61865C42.0478 3.17662 41.9907 2.77604 41.8625 2.4307C41.7342 2.08537 41.5631 1.78148 41.3493 1.53284C41.1213 1.2842 40.8647 1.09081 40.5511 0.966494C40.2376 0.828361 39.8955 0.773108 39.5106 0.773108C39.2398 0.773108 39.026 0.773108 38.855 0.786921C38.6839 0.786921 38.5272 0.814547 38.3561 0.828361C38.3561 0.883614 38.3561 0.99412 38.3561 1.15988C38.3561 1.32564 38.3561 1.51903 38.3561 1.74004V5.38675L38.3704 5.37294Z" fill="#4195AB"/>
<path d="M49.6163 2.66553C49.7589 2.40308 49.9014 2.12681 50.0439 1.83673C50.1865 1.54665 50.3147 1.25657 50.4573 0.966494C50.5856 0.676414 50.7138 0.400148 50.8421 0.137695C50.9276 0.151509 51.0132 0.165322 51.0987 0.179135C51.1842 0.179135 51.2697 0.192949 51.3552 0.192949C51.4408 0.192949 51.5263 0.192949 51.6118 0.179135C51.6973 0.165322 51.7829 0.151509 51.8826 0.137695C51.7543 0.344895 51.5976 0.607348 51.4123 0.925054C51.227 1.24276 51.0274 1.60191 50.8136 1.98868C50.5998 2.37545 50.386 2.76222 50.158 3.149C49.9441 3.54958 49.7446 3.90873 49.5593 4.25406C49.5593 4.41982 49.5593 4.59939 49.5593 4.77897C49.5593 4.95854 49.5593 5.13811 49.5593 5.31769C49.5593 5.67683 49.5593 6.04979 49.5736 6.40894C49.5736 6.76808 49.6163 7.14104 49.6733 7.54163C49.5165 7.52782 49.3598 7.514 49.203 7.514H48.2622C48.1055 7.514 47.9487 7.514 47.7919 7.54163C47.8061 7.21011 47.8346 6.87859 47.8631 6.53326C47.8917 6.18793 47.9202 5.84259 47.9202 5.49726C47.9202 5.3315 47.9202 5.16574 47.9202 4.99998C47.9202 4.83422 47.9202 4.66846 47.9059 4.5027C47.7206 4.14356 47.5068 3.74297 47.2645 3.30094C47.0222 2.85892 46.7941 2.4307 46.5661 2.01631C46.338 1.60191 46.1385 1.22895 45.9389 0.883614C45.7394 0.538281 45.6111 0.303455 45.5256 0.151509C45.6966 0.165322 45.8677 0.179135 46.0244 0.192949C46.1812 0.192949 46.3523 0.206762 46.5233 0.206762C46.6944 0.206762 46.8511 0.206762 47.0222 0.192949C47.179 0.192949 47.35 0.165322 47.5211 0.151509C47.6493 0.413961 47.7919 0.704041 47.9487 1.03556C48.1055 1.35327 48.2622 1.67097 48.419 1.98868C48.5758 2.30639 48.7184 2.58265 48.8466 2.83129C48.9749 3.07993 49.0889 3.27332 49.1745 3.39764H49.203C49.3455 3.19044 49.5023 2.95561 49.6448 2.69316L49.6163 2.66553Z" fill="#4195AB"/>
<path d="M57.8833 3.12137C57.8833 2.5274 57.8833 2.00249 57.8548 1.53284C57.8406 1.077 57.8121 0.607348 57.7836 0.137695C57.9119 0.151509 58.0401 0.165322 58.1969 0.179135C58.3537 0.192949 58.5105 0.192949 58.6958 0.192949C58.9381 0.192949 59.2089 0.192949 59.5225 0.165322C59.8361 0.137695 60.2209 0.137695 60.7055 0.137695C61.3469 0.137695 61.9171 0.192949 62.4445 0.303455C62.9718 0.413961 63.4137 0.607348 63.7985 0.869801C64.1691 1.13225 64.4684 1.4914 64.6823 1.93343C64.8961 2.37545 64.9958 2.9418 64.9958 3.63246C64.9958 4.22644 64.8961 4.76515 64.6965 5.24862C64.497 5.73209 64.2119 6.14649 63.8698 6.478C63.5135 6.82334 63.1144 7.07198 62.644 7.25155C62.1879 7.43112 61.689 7.514 61.1616 7.514C60.6058 7.514 60.1354 7.514 59.7363 7.514C59.3372 7.514 59.0094 7.514 58.71 7.514H58.2112C58.0686 7.514 57.9261 7.514 57.7978 7.54163C57.8263 7.0996 57.8548 6.64376 57.8691 6.17411C57.8833 5.71827 57.8976 5.17955 57.8976 4.58558V3.12137H57.8833ZM59.5225 5.37294V6.02217C59.5225 6.22937 59.5225 6.42275 59.5225 6.58851C59.5225 6.75427 59.5225 6.87859 59.5225 6.92003C59.6365 6.92003 59.7648 6.93384 59.9216 6.94766C60.0784 6.94766 60.2637 6.94766 60.4917 6.94766C61.3327 6.94766 61.9883 6.67139 62.473 6.11886C62.9576 5.56633 63.1999 4.73753 63.1999 3.61865C63.1999 3.17662 63.1429 2.77604 63.0146 2.4307C62.8863 2.08537 62.7153 1.78148 62.5015 1.53284C62.2734 1.2842 62.0169 1.09081 61.7033 0.966494C61.3897 0.828361 61.0476 0.773108 60.6628 0.773108C60.392 0.773108 60.1781 0.773108 60.0071 0.786921C59.8361 0.786921 59.6793 0.814547 59.5082 0.828361C59.5082 0.883614 59.5082 0.99412 59.5082 1.15988C59.5082 1.32564 59.5082 1.51903 59.5082 1.74004V5.38675L59.5225 5.37294Z" fill="#4195AB"/>
<path d="M67.2906 1.53284C67.2764 1.077 67.2479 0.607348 67.2194 0.137695C67.5472 0.137695 67.875 0.151509 68.2028 0.165322C68.5307 0.179135 68.8585 0.192949 69.1863 0.192949C69.728 0.192949 70.2268 0.192949 70.6402 0.179135C71.0535 0.165322 71.3529 0.151509 71.4954 0.137695C71.4669 0.248202 71.4526 0.400148 71.4526 0.593535C71.4526 0.704041 71.4526 0.800734 71.4526 0.855987C71.4526 0.911241 71.4669 0.994121 71.4812 1.077C71.2673 1.06319 71.025 1.04937 70.7827 1.03556C70.5262 1.02175 70.2839 1.00793 70.0415 0.994121C69.7992 0.980307 69.5854 0.966494 69.3859 0.966494C69.1863 0.966494 69.0581 0.966494 68.9725 0.966494C68.944 1.36708 68.9298 1.75385 68.9155 2.14063C68.9155 2.5274 68.9155 2.91417 68.9155 3.31476C69.4001 3.31476 69.8277 3.30094 70.2126 3.28713C70.5974 3.27332 71.0108 3.2595 71.4241 3.23188C71.3956 3.3562 71.3814 3.45289 71.3814 3.50814C71.3814 3.5634 71.3814 3.64628 71.3814 3.71534C71.3814 3.7706 71.3814 3.82585 71.3956 3.89492C71.3956 3.95017 71.4241 4.04686 71.4384 4.15737C70.5974 4.0883 69.7565 4.06068 68.9155 4.06068C68.9155 4.2955 68.9155 4.51652 68.9155 4.75134C68.9155 4.98617 68.9155 5.20718 68.9155 5.44201C68.9155 5.91166 68.9155 6.35369 68.944 6.7819C69.3716 6.7819 69.785 6.7819 70.2126 6.75427C70.6402 6.72664 71.0535 6.69902 71.4954 6.64377C71.4811 6.72664 71.4669 6.79571 71.4669 6.86478C71.4669 6.93384 71.4669 7.01672 71.4669 7.12723C71.4669 7.23774 71.4669 7.33443 71.4669 7.38968C71.4669 7.44494 71.4811 7.514 71.4954 7.55544C71.2959 7.55544 71.0535 7.55544 70.7542 7.54163C70.4549 7.52782 70.0558 7.54163 69.5569 7.54163H67.8038C67.6327 7.54163 67.5044 7.54163 67.4332 7.54163C67.3476 7.54163 67.2764 7.54163 67.2194 7.55544C67.2479 7.11342 67.2764 6.65758 67.2906 6.18793C67.3049 5.73209 67.3191 5.19337 67.3191 4.5994V3.13518C67.3191 2.54121 67.3191 2.01631 67.2906 1.54665V1.53284Z" fill="#4195AB"/>
<path d="M75.7857 0.662834C75.4436 0.662834 75.1728 0.759527 74.959 0.952913C74.7452 1.1463 74.6312 1.36731 74.6312 1.62977C74.6312 1.89222 74.7167 2.11323 74.8877 2.27899C75.0588 2.44475 75.2583 2.5967 75.5149 2.73483C75.7715 2.87296 76.0423 2.99728 76.3273 3.1216C76.6124 3.24592 76.8832 3.39787 77.1398 3.57744C77.3963 3.75701 77.5959 3.97803 77.7669 4.24048C77.938 4.50293 78.0235 4.83445 78.0235 5.24885C78.0235 5.608 77.9522 5.93952 77.8097 6.2296C77.6672 6.51968 77.4676 6.78213 77.2111 6.98933C76.9545 7.19653 76.6409 7.36229 76.2846 7.4728C75.9282 7.5833 75.5291 7.63856 75.0873 7.63856C74.6882 7.63856 74.3319 7.59712 74.0183 7.51424C73.7047 7.43136 73.4624 7.33466 73.3056 7.21034C73.3769 6.9617 73.4481 6.72688 73.4909 6.51968C73.5479 6.31248 73.5907 6.09146 73.6192 5.84282H73.833C73.8615 5.99477 73.9185 6.14672 74.004 6.28485C74.0895 6.42298 74.1893 6.5473 74.3176 6.65781C74.4459 6.76832 74.5884 6.8512 74.7737 6.90645C74.9448 6.9617 75.1443 7.00314 75.3724 7.00314C75.8142 7.00314 76.142 6.89264 76.3558 6.68544C76.5696 6.46442 76.6694 6.21578 76.6694 5.91189C76.6694 5.63563 76.5839 5.41461 76.4271 5.24885C76.2703 5.08309 76.0565 4.93115 75.8142 4.79301C75.5719 4.65488 75.3011 4.53056 75.016 4.40624C74.731 4.28192 74.4601 4.12997 74.2178 3.9504C73.9755 3.77083 73.776 3.54982 73.6049 3.28736C73.4481 3.02491 73.3626 2.69339 73.3626 2.27899C73.3626 1.90603 73.4339 1.57451 73.5622 1.28443C73.7047 0.994353 73.8757 0.759527 74.1181 0.56614C74.3461 0.372754 74.6169 0.220808 74.9162 0.124114C75.2156 0.0274212 75.5291 -0.027832 75.8712 -0.027832C76.2703 -0.027832 76.6267 0.0136079 76.926 0.110301C77.2253 0.206994 77.4819 0.331314 77.6957 0.497074C77.6244 0.662834 77.5674 0.828593 77.5246 0.98054C77.4819 1.13249 77.4106 1.32587 77.3393 1.5607H77.1683C76.926 0.9391 76.4841 0.635207 75.8285 0.635207L75.7857 0.662834Z" fill="#4195AB"/>
<path d="M80.3041 1.53284C80.2898 1.077 80.2613 0.607348 80.2328 0.137695C80.3611 0.151509 80.4894 0.165322 80.6461 0.179135C80.7887 0.179135 80.9597 0.192949 81.145 0.192949C81.3303 0.192949 81.5013 0.192949 81.6439 0.179135C81.7864 0.179135 81.9289 0.151509 82.0572 0.137695C82.0287 0.607348 82.0002 1.06319 81.986 1.53284C81.9717 1.98868 81.9575 2.5274 81.9575 3.12137V4.58558C81.9575 5.17955 81.9575 5.70446 81.986 6.17411C82.0002 6.62995 82.0287 7.08579 82.0572 7.54163C81.9289 7.52782 81.8007 7.514 81.6439 7.514H80.6461C80.5036 7.514 80.3611 7.514 80.2328 7.54163C80.2613 7.0996 80.2898 6.64376 80.3041 6.17411C80.3183 5.71827 80.3326 5.17955 80.3326 4.58558V3.12137C80.3326 2.5274 80.3326 2.00249 80.3041 1.53284Z" fill="#4195AB"/>
<path d="M90.3243 0.966585C89.9679 0.773199 89.5403 0.676505 89.0272 0.676505C88.6851 0.676505 88.343 0.745572 88.0152 0.883705C87.6874 1.02184 87.3738 1.22904 87.1172 1.51912C86.8607 1.79538 86.6469 2.15453 86.4758 2.56893C86.319 2.98333 86.2335 3.48061 86.2335 4.04695C86.2335 4.47517 86.2905 4.87575 86.4188 5.2349C86.5471 5.59404 86.7181 5.91175 86.9462 6.18802C87.1743 6.45047 87.4593 6.67148 87.7872 6.82343C88.115 6.97538 88.4998 7.04444 88.9274 7.04444C89.0272 7.04444 89.127 7.04444 89.2553 7.03063C89.3835 7.01682 89.4976 7.003 89.6116 6.98919C89.7256 6.97538 89.8254 6.96156 89.9252 6.93394C90.025 6.90631 90.0962 6.87868 90.139 6.85106C90.1532 6.76818 90.1675 6.65767 90.1675 6.53335C90.1675 6.40903 90.1675 6.25708 90.1675 6.10514C90.1675 5.52498 90.1675 5.09677 90.139 4.8205C90.1105 4.54423 90.0962 4.35085 90.0962 4.25415C90.1675 4.26797 90.2673 4.28178 90.3955 4.29559C90.5238 4.30941 90.6949 4.30941 90.9229 4.30941C91.1937 4.30941 91.3933 4.30941 91.5216 4.29559C91.6499 4.28178 91.7496 4.26797 91.8209 4.25415C91.8066 4.30941 91.7924 4.4061 91.7781 4.53042C91.7639 4.65474 91.7639 4.80668 91.7496 4.97245C91.7496 5.1382 91.7496 5.31778 91.7354 5.51116C91.7354 5.70455 91.7354 5.88412 91.7354 6.04988V6.40903C91.7354 6.5886 91.7354 6.75436 91.7354 6.90631C91.7354 7.05826 91.7354 7.16876 91.7639 7.23783C91.2793 7.37596 90.7804 7.48647 90.2815 7.55553C89.7826 7.63841 89.2838 7.67985 88.7992 7.67985C88.1577 7.67985 87.5734 7.59697 87.046 7.43121C86.5186 7.26546 86.0482 7.03063 85.6634 6.72674C85.2785 6.40903 84.965 6.03607 84.7512 5.59404C84.5374 5.15202 84.4233 4.65474 84.4233 4.10221C84.4233 3.42535 84.5374 2.81757 84.7797 2.30648C85.0077 1.79538 85.3356 1.36717 85.7489 1.02184C86.1623 0.676505 86.6469 0.427866 87.2028 0.248293C87.7587 0.0687197 88.3716 -0.0141602 89.0272 -0.0141602C89.5831 -0.0141602 90.082 0.0410931 90.4811 0.1516C90.8944 0.262106 91.2935 0.427866 91.6926 0.635065C91.6356 0.828452 91.5786 1.00802 91.5216 1.1876C91.4646 1.36717 91.4218 1.54674 91.379 1.74013H91.2222C90.9799 1.42242 90.6949 1.15997 90.3385 0.966585H90.3243Z" fill="#4195AB"/>
<path d="M94.4863 2.27876C94.4863 1.78148 94.4863 1.36708 94.4578 1.03556C94.4435 0.704041 94.4293 0.400148 94.4293 0.137695C94.6431 0.179135 94.7999 0.192949 94.9281 0.192949C95.0564 0.192949 95.2132 0.179135 95.427 0.137695C96.2395 1.00793 97.0377 1.86436 97.8216 2.69316C98.6055 3.53577 99.418 4.3922 100.245 5.24862V3.27332C100.245 2.92798 100.245 2.58265 100.245 2.23732C100.245 1.89199 100.245 1.58809 100.245 1.29801C100.245 1.00793 100.245 0.759294 100.216 0.552095C100.216 0.344895 100.188 0.206762 100.173 0.137695C100.387 0.179135 100.544 0.192949 100.672 0.192949C100.801 0.192949 100.972 0.179135 101.171 0.137695C101.128 0.786921 101.1 1.38089 101.086 1.9058C101.057 2.4307 101.043 2.92798 101.029 3.39764C101.014 3.86729 101 4.32313 101 4.77897C101 5.23481 101 5.71827 101 6.24318V7.52782C100.858 7.514 100.701 7.50019 100.544 7.50019C100.387 7.50019 100.23 7.50019 100.116 7.52782C98.5913 5.80115 96.9806 4.07449 95.2702 2.33401C95.2702 2.54121 95.2702 2.74841 95.256 2.95561C95.256 3.16281 95.256 3.37001 95.256 3.59102V4.83422C95.256 5.26243 95.256 5.63539 95.256 5.92547C95.256 6.22937 95.256 6.47801 95.2702 6.6852C95.2845 6.8924 95.2845 7.05816 95.2987 7.1963C95.2987 7.33443 95.313 7.43112 95.3272 7.514C95.2417 7.50019 95.1562 7.48638 95.0564 7.48638H94.7999C94.6288 7.48638 94.4578 7.48638 94.2867 7.514C94.301 7.45875 94.3153 7.25155 94.3438 6.90622C94.3723 6.56088 94.3865 6.13267 94.415 5.62158C94.4435 5.11049 94.4578 4.57177 94.4863 3.9778C94.5148 3.38382 94.5148 2.81748 94.5148 2.27876H94.4863Z" fill="#4195AB"/>
<path d="M4.13351 29.5048C4.14776 30.8309 4.21903 31.8945 4.3188 32.668C4.01948 32.6404 3.69165 32.6128 3.34957 32.6128H0.969236C0.612899 32.6128 0.299323 32.6266 0 32.668C0.0712674 31.6182 0.128281 30.5408 0.156788 29.4357C0.185295 28.3307 0.213802 27.0875 0.213802 25.6647V22.1976C0.213802 20.7886 0.199549 19.5316 0.156788 18.4265C0.128281 17.3353 0.0712674 16.2302 0 15.1251C0.299323 15.1528 0.627153 15.1942 0.969236 15.208C1.32557 15.2356 1.71042 15.2495 2.15227 15.2495C2.59413 15.2495 2.99323 15.2495 3.33531 15.208C3.69165 15.1804 4.00523 15.1528 4.30455 15.1251C4.21903 15.6362 4.16201 16.396 4.13351 17.4182C4.105 18.4403 4.09075 19.573 4.09075 20.8162V23.2612C4.68939 22.5843 5.3308 21.8384 6.01497 21.0234C6.69913 20.2084 7.35479 19.4211 7.9962 18.6614C8.63761 17.9016 9.19349 17.1971 9.70662 16.5479C10.2197 15.9125 10.5903 15.429 10.8184 15.1113C11.0607 15.139 11.303 15.1804 11.5596 15.1942C11.8019 15.2218 12.0442 15.2356 12.3007 15.2356C12.5573 15.2356 12.7996 15.2356 13.0562 15.1942C13.3127 15.1666 13.5836 15.139 13.8829 15.1113C13.5836 15.4014 13.1274 15.8711 12.5146 16.5203C11.9017 17.1695 11.246 17.8602 10.5476 18.6199C9.84915 19.3658 9.19349 20.0979 8.55208 20.8024C7.92493 21.5069 7.42606 22.0732 7.06972 22.4738C7.62561 23.3026 8.25276 24.2281 8.93693 25.2365C9.6211 26.2449 10.3053 27.2256 10.9752 28.1925C11.6451 29.1595 12.2865 30.0435 12.8566 30.8447C13.441 31.6597 13.8971 32.2675 14.2535 32.668C13.7403 32.6404 13.2842 32.6128 12.8851 32.6128H10.5476C10.1627 32.6128 9.79214 32.6266 9.40729 32.668C8.50932 31.3696 7.62561 30.0573 6.7704 28.7174C5.91519 27.3776 5.03148 26.0515 4.13351 24.7254H4.07649C4.07649 26.5764 4.07649 28.1787 4.105 29.5048H4.13351Z" fill="#4195AB"/>
<path d="M33.5242 32.6682C33.0966 32.6406 32.6975 32.6129 32.3269 32.6129H30.0891C29.7042 32.6129 29.3337 32.6268 28.9631 32.6682C28.678 31.8394 28.3929 30.983 28.0936 30.1127C27.7943 29.2425 27.4807 28.3723 27.1386 27.502C26.5827 27.4882 26.0126 27.4744 25.4567 27.4606C24.9008 27.4606 24.3307 27.4606 23.7748 27.4606C23.3187 27.4606 22.8626 27.4606 22.4065 27.4606C21.9504 27.4606 21.4942 27.4882 21.0381 27.502C20.6818 28.3723 20.3682 29.2425 20.0689 30.1127C19.7696 30.983 19.4988 31.8394 19.2564 32.6682C19.0426 32.6406 18.8431 32.6129 18.6436 32.6129H17.3892C17.1754 32.6129 16.9474 32.6268 16.7051 32.6682C16.9189 32.2262 17.1897 31.6184 17.546 30.831C17.9024 30.0437 18.2872 29.1596 18.7006 28.1789C19.1282 27.1981 19.57 26.1345 20.0546 25.0018C20.5393 23.8691 21.0239 22.7226 21.5085 21.5623C21.9931 20.402 22.4635 19.2693 22.9338 18.1366C23.4042 17.0039 23.8318 15.9679 24.2167 15.001C24.3877 15.0286 24.5587 15.07 24.7155 15.0839C24.8723 15.0977 25.0434 15.1253 25.2144 15.1253C25.3854 15.1253 25.5565 15.1253 25.7133 15.0839C25.8701 15.0424 26.0411 15.0286 26.2121 15.001C26.768 16.4514 27.3809 17.9985 28.0223 19.6423C28.6637 21.2998 29.3051 22.916 29.9608 24.5045C30.6165 26.0931 31.2436 27.6125 31.8565 29.0353C32.4694 30.4719 33.0396 31.6736 33.5384 32.6682H33.5242ZM24.1882 19.9185C23.732 20.9407 23.3044 21.9491 22.8911 22.9436C22.492 23.9382 22.0929 24.9604 21.708 25.9964H26.5257C26.1409 24.9604 25.756 23.9382 25.3854 22.9436C25.0006 21.9491 24.6015 20.9407 24.1882 19.9185Z" fill="#4195AB"/>
<path d="M38.2848 18.4269C38.2563 17.3356 38.1993 16.2306 38.1281 15.1255C38.4274 15.1531 38.7552 15.1946 39.0973 15.2084C39.4536 15.236 39.8385 15.2498 40.2803 15.2498C40.7222 15.2498 41.1213 15.2498 41.4634 15.2084C41.8197 15.1807 42.1333 15.1531 42.4326 15.1255C42.3613 16.2306 42.3043 17.3356 42.2758 18.4269C42.2473 19.5319 42.2188 20.7751 42.2188 22.1979V25.665C42.2188 26.632 42.2188 27.5713 42.2188 28.4691C42.2188 29.367 42.2473 30.1544 42.2616 30.8174C43.2593 30.8174 44.2713 30.7898 45.269 30.7345C46.2668 30.6793 47.2788 30.5964 48.305 30.4859C48.2765 30.6793 48.248 30.845 48.2195 30.997C48.2053 31.1489 48.191 31.3699 48.191 31.6324C48.191 31.8948 48.191 32.1159 48.2195 32.2678C48.2338 32.4198 48.2623 32.5441 48.305 32.6546C47.8347 32.6408 47.2503 32.627 46.5519 32.6131C45.8534 32.6131 44.8985 32.6131 43.6869 32.6131H39.5106C39.1115 32.6131 38.8122 32.6131 38.6127 32.6131C38.4131 32.6131 38.2421 32.6408 38.0995 32.6546C38.1708 31.6048 38.2278 30.5273 38.2563 29.4223C38.2848 28.3172 38.3133 27.074 38.3133 25.6512V22.1841C38.3133 20.7751 38.2991 19.5181 38.2563 18.4131L38.2848 18.4269Z" fill="#4195AB"/>
<path d="M52.1962 23.9384C52.1962 22.6813 52.4385 21.4934 52.9231 20.3883C53.4077 19.2833 54.0919 18.3163 54.9614 17.4737C55.8451 16.6449 56.8998 15.9819 58.1541 15.5122C59.3942 15.0426 60.791 14.7939 62.3162 14.7939C63.7273 14.7939 65.0243 14.9873 66.2359 15.3603C67.4474 15.7333 68.5022 16.2996 69.4001 17.0455C70.2981 17.7914 70.9965 18.7446 71.5239 19.8911C72.037 21.0376 72.3078 22.3775 72.3078 23.9107C72.3078 25.1816 72.0513 26.3833 71.5524 27.4884C71.0535 28.5934 70.3551 29.5604 69.4714 30.3892C68.5877 31.218 67.5187 31.8534 66.2929 32.323C65.0671 32.7789 63.713 33.0137 62.2306 33.0137C60.8481 33.0137 59.5367 32.8479 58.3109 32.5164C57.0851 32.1849 56.0304 31.6462 55.1182 30.9141C54.2202 30.1682 53.4933 29.2289 52.9659 28.0823C52.4385 26.9358 52.1819 25.5545 52.1819 23.9522L52.1962 23.9384Z" fill="#4195AB"/>
<path d="M82.2711 16.3685C81.4586 16.3685 80.803 16.6033 80.2898 17.0591C79.7767 17.515 79.5201 18.0537 79.5201 18.6615C79.5201 19.2693 79.7197 19.808 80.1188 20.2086C80.5179 20.6091 81.0168 20.9683 81.6011 21.2998C82.1998 21.6175 82.8412 21.9352 83.5254 22.2253C84.2095 22.5292 84.8509 22.8883 85.4496 23.3166C86.0482 23.7448 86.5471 24.2835 86.9319 24.9051C87.331 25.5267 87.5306 26.3279 87.5306 27.2948C87.5306 28.1512 87.3596 28.9248 87.0317 29.6292C86.7039 30.3337 86.2193 30.9415 85.6064 31.4388C84.9935 31.9361 84.2523 32.3228 83.4113 32.5853C82.5561 32.8477 81.6011 32.9859 80.5464 32.9859C79.5914 32.9859 78.7505 32.8892 78.0093 32.6958C77.2681 32.5024 76.698 32.2538 76.3131 31.9637C76.4842 31.3697 76.6409 30.8172 76.755 30.3337C76.8832 29.8364 76.983 29.2977 77.0685 28.7314H77.5674C77.6387 29.1043 77.767 29.4635 77.9665 29.795C78.1661 30.1265 78.4084 30.4166 78.7077 30.679C79.007 30.9277 79.3634 31.1349 79.791 31.273C80.2186 31.4112 80.6889 31.494 81.2163 31.494C82.2711 31.494 83.0407 31.2454 83.5539 30.7343C84.0527 30.2232 84.3093 29.6154 84.3093 28.8971C84.3093 28.2479 84.1098 27.723 83.7249 27.3086C83.3401 26.8942 82.8555 26.5351 82.2711 26.2173C81.6867 25.8996 81.0595 25.5957 80.3753 25.2919C79.6912 24.988 79.064 24.6288 78.4796 24.2006C77.8952 23.7724 77.4106 23.2475 77.0258 22.6259C76.6409 22.0043 76.4414 21.2031 76.4414 20.2362C76.4414 19.3521 76.5982 18.5648 76.926 17.8879C77.2538 17.2111 77.6814 16.6309 78.2373 16.1751C78.779 15.7192 79.4061 15.3601 80.1188 15.1253C80.8315 14.8904 81.5869 14.7661 82.3708 14.7661C83.3258 14.7661 84.1525 14.8766 84.8652 15.0976C85.5779 15.3186 86.1908 15.6225 86.6896 16.0231C86.5329 16.4099 86.3903 16.7967 86.2763 17.1558C86.1623 17.5288 86.0197 17.9846 85.8344 18.551H85.4353C84.8794 17.0868 83.8104 16.3546 82.2426 16.3546L82.2711 16.3685Z" fill="#4195AB"/>
<path d="M93.0182 18.4269C92.9897 17.3356 92.9327 16.2306 92.8614 15.1255C93.1607 15.1531 93.4885 15.1946 93.8306 15.2084C94.187 15.236 94.5718 15.2498 95.0137 15.2498C95.4555 15.2498 95.8546 15.2498 96.1967 15.2084C96.553 15.1807 96.8666 15.1531 97.1659 15.1255C97.0947 16.2306 97.0377 17.3356 97.0091 18.4269C96.9806 19.5319 96.9521 20.7751 96.9521 22.1979V25.665C96.9521 27.074 96.9664 28.331 97.0091 29.4361C97.0377 30.5273 97.0947 31.6048 97.1659 32.6684C96.8666 32.6408 96.5388 32.6131 96.1967 32.6131H93.8306C93.4743 32.6131 93.1607 32.627 92.8614 32.6684C92.9327 31.6186 92.9897 30.5411 93.0182 29.4361C93.0467 28.331 93.0752 27.0878 93.0752 25.665V22.1979C93.0752 20.7889 93.0609 19.5319 93.0182 18.4269Z" fill="#4195AB"/>
<path d="M111.89 32.9999C110.764 32.9999 109.709 32.8894 108.74 32.6546C107.771 32.4198 106.915 32.0468 106.203 31.5081C105.476 30.9694 104.92 30.2787 104.506 29.4361C104.093 28.5935 103.894 27.5713 103.894 26.3557C103.894 25.6789 103.894 25.0711 103.894 24.5324C103.894 23.9936 103.894 23.4964 103.894 23.0405C103.894 22.5847 103.894 22.1427 103.894 21.7144C103.894 21.2862 103.894 20.8442 103.894 20.3884C103.894 19.007 103.894 17.8882 103.865 17.0455C103.851 16.1891 103.822 15.5537 103.78 15.1255C104.136 15.1531 104.492 15.1946 104.863 15.2084C105.233 15.236 105.59 15.2498 105.946 15.2498C106.302 15.2498 106.659 15.2498 107.029 15.2084C107.4 15.1807 107.756 15.1531 108.113 15.1255C107.942 16.7831 107.828 18.3164 107.799 19.7391C107.771 21.1619 107.742 22.5985 107.742 24.0627C107.742 25.6098 107.856 26.8668 108.084 27.8199C108.312 28.773 108.654 29.5051 109.096 30.0301C109.538 30.555 110.094 30.9003 110.749 31.066C111.405 31.2318 112.161 31.3147 113.016 31.3147C114.071 31.3147 114.897 31.0661 115.496 30.555C116.095 30.0439 116.551 29.367 116.85 28.5106C117.164 27.6542 117.349 26.6872 117.42 25.5822C117.491 24.4909 117.52 23.3444 117.52 22.1427C117.52 20.9409 117.506 19.7944 117.463 18.6341C117.434 17.4738 117.377 16.2996 117.306 15.1255C117.548 15.1531 117.791 15.1946 118.019 15.2084C118.247 15.236 118.461 15.2498 118.646 15.2498C118.874 15.2498 119.088 15.2498 119.302 15.2084C119.515 15.1807 119.729 15.1531 119.957 15.1255C119.929 15.4984 119.886 15.9957 119.857 16.6311C119.815 17.2666 119.786 17.9848 119.758 18.8136C119.729 19.6424 119.686 20.5541 119.672 21.5487C119.644 22.5432 119.629 23.593 119.629 24.6981C119.629 27.6542 118.974 29.7814 117.648 31.066C116.337 32.3507 114.398 32.9999 111.847 32.9999H111.89Z" fill="#4195AB"/>
<path d="M64.3259 25.3473L68.545 23.8969L64.3259 22.4465L65.3949 20.1397L63.4707 21.4105L62.2592 16.3687L61.0334 21.4105L59.1092 20.1397L60.1782 22.4465L55.9734 23.8969L60.1782 25.3473L59.1092 27.6541L61.0334 26.3833L62.2592 31.4113L63.4707 26.3833L65.3949 27.6541L64.3259 25.3473Z" fill="white"/>
</svg>
