<?xml version="1.0" encoding="UTF-8"?>
<svg id="_レイヤー_2" data-name="レイヤー 2" xmlns="http://www.w3.org/2000/svg" viewBox="0 0 84.19 23.89">
  <defs>
    <style>
      .cls-1 {
        fill: #4195ab;
      }

      .cls-2 {
        fill: #fff;
      }
    </style>
  </defs>
  <g id="_レイヤー_1-2" data-name="レイヤー 1">
    <g>
      <g>
        <path class="cls-1" d="M13.27,2.26c0-.43,0-.81-.02-1.15-.01-.33-.03-.67-.05-1.01.09.01.18.02.29.03s.22.01.35.01c.22,0,.46,0,.7-.02s.48-.02.7-.02.45.02.64.07c.19.05.36.12.5.21.14.1.25.22.32.37.08.15.11.34.11.55s-.04.4-.13.55c-.09.15-.2.28-.32.38-.13.1-.26.18-.41.24-.15.06-.28.1-.4.12v.02c.12,0,.26.03.42.08.16.05.31.13.46.23.15.1.27.24.37.4.1.16.15.36.15.6,0,.28-.05.52-.15.72-.1.2-.24.36-.41.48-.17.12-.36.21-.58.26-.22.05-.44.07-.68.07-.21,0-.4,0-.58,0-.18,0-.37,0-.56,0h-.43c-.15,0-.27,0-.35.02.02-.32.04-.65.05-.99.01-.33.02-.72.02-1.15v-1.06ZM15.67,1.46c0-.12-.01-.24-.04-.35-.03-.11-.08-.21-.14-.29s-.15-.15-.26-.19c-.1-.05-.23-.07-.39-.07-.11,0-.19,0-.24,0-.04,0-.09,0-.14.02-.01.19-.02.39-.02.58,0,.2,0,.36,0,.5s0,.27,0,.4c0,.13,0,.26,0,.39h.35c.11,0,.22-.02.32-.06.11-.04.2-.1.28-.18.08-.08.15-.18.2-.31s.08-.27.08-.44ZM15.73,3.97c0-.36-.08-.63-.25-.81-.16-.18-.4-.27-.71-.27-.07,0-.14,0-.19,0-.05,0-.1,0-.15,0,0,.11,0,.22,0,.34,0,.12,0,.26,0,.42,0,.12,0,.25,0,.38,0,.13,0,.26,0,.38s0,.24,0,.34c0,.1,0,.19,0,.26.07,0,.14,0,.2.01.06,0,.14,0,.23,0,.11,0,.22-.02.33-.07s.19-.12.27-.21.14-.2.19-.33.07-.28.07-.45Z"/>
        <path class="cls-1" d="M18.23,2.79c0-.38.07-.75.21-1.08.14-.34.34-.63.6-.89.26-.25.57-.45.94-.6.37-.15.78-.22,1.23-.22.42,0,.8.06,1.16.17.36.11.67.29.93.51.26.23.47.52.63.87.15.35.23.76.23,1.23,0,.39-.07.75-.22,1.09-.15.34-.35.63-.62.88s-.57.45-.94.59c-.36.14-.76.21-1.2.21-.41,0-.8-.05-1.16-.15-.36-.1-.67-.26-.94-.49-.27-.23-.48-.51-.63-.86-.16-.35-.23-.77-.23-1.26ZM22.9,2.62c0-.34-.04-.64-.12-.91-.08-.27-.2-.49-.35-.68-.15-.19-.33-.33-.54-.43-.21-.1-.44-.15-.69-.15-.26,0-.5.06-.71.19s-.39.3-.53.52c-.15.22-.26.47-.33.77-.08.29-.11.61-.11.94,0,.42.04.77.13,1.05.09.29.21.52.36.69.15.17.32.3.52.38s.41.12.62.12c.23,0,.46-.05.67-.15.21-.1.4-.25.56-.45s.29-.46.38-.77c.1-.31.14-.68.14-1.11Z"/>
        <path class="cls-1" d="M25.76,2.26c0-.43,0-.81-.02-1.15-.01-.33-.03-.67-.05-1.01.09.01.18.02.29.03s.22.01.35.01c.17,0,.36,0,.58-.02s.49-.02.83-.02c.45,0,.85.04,1.22.12.37.08.68.22.95.41.26.19.47.45.62.77s.22.73.22,1.23c0,.43-.07.82-.21,1.17-.14.35-.34.65-.58.89-.25.25-.53.43-.86.56-.32.13-.67.19-1.04.19-.39,0-.72,0-1,0-.28,0-.51,0-.72,0h-.35c-.1,0-.2,0-.29.02.02-.32.04-.65.05-.99.01-.33.02-.72.02-1.15v-1.06ZM26.92,3.89v.47c0,.15,0,.29,0,.41,0,.12,0,.21,0,.24.08,0,.17.01.28.02.11,0,.24,0,.4,0,.59,0,1.05-.2,1.39-.6s.51-1,.51-1.81c0-.32-.04-.61-.13-.86-.09-.25-.21-.47-.36-.65-.16-.18-.34-.32-.56-.41-.22-.1-.46-.14-.73-.14-.19,0-.34,0-.46.01-.12,0-.23.02-.35.03,0,.04,0,.12,0,.24,0,.12,0,.26,0,.42v2.64Z"/>
        <path class="cls-1" d="M34.81,1.93c.1-.19.2-.39.3-.6.1-.21.19-.42.29-.63.09-.21.18-.41.27-.6.06.01.12.02.18.03.06,0,.12.01.18.01s.12,0,.18-.01.12-.02.19-.03c-.09.15-.2.34-.33.57s-.27.49-.42.77c-.15.28-.3.56-.46.84-.15.29-.29.55-.42.8,0,.12,0,.25,0,.38,0,.13,0,.26,0,.39,0,.26,0,.53.01.79,0,.26.03.53.07.82-.11-.01-.22-.02-.33-.02h-.66c-.11,0-.22,0-.33.02.01-.24.03-.48.05-.73s.04-.5.04-.75c0-.12,0-.24,0-.36,0-.12,0-.24-.01-.36-.13-.26-.28-.55-.45-.87-.17-.32-.33-.63-.49-.93-.16-.3-.3-.57-.44-.82s-.23-.42-.29-.53c.12.01.24.02.35.03.11,0,.23.01.35.01s.23,0,.35-.01c.11,0,.23-.02.35-.03.09.19.19.4.3.64.11.23.22.46.33.69s.21.43.3.61c.09.18.17.32.23.41h.02c.1-.15.21-.32.31-.51Z"/>
        <path class="cls-1" d="M40.61,2.26c0-.43,0-.81-.02-1.15-.01-.33-.03-.67-.05-1.01.09.01.18.02.29.03s.22.01.35.01c.17,0,.36,0,.58-.02s.49-.02.83-.02c.45,0,.85.04,1.22.12.37.08.68.22.95.41.26.19.47.45.62.77s.22.73.22,1.23c0,.43-.07.82-.21,1.17-.14.35-.34.65-.58.89-.25.25-.53.43-.86.56-.32.13-.67.19-1.04.19-.39,0-.72,0-1,0-.28,0-.51,0-.72,0h-.35c-.1,0-.2,0-.29.02.02-.32.04-.65.05-.99.01-.33.02-.72.02-1.15v-1.06ZM41.76,3.89v.47c0,.15,0,.29,0,.41,0,.12,0,.21,0,.24.08,0,.17.01.28.02.11,0,.24,0,.4,0,.59,0,1.05-.2,1.39-.6s.51-1,.51-1.81c0-.32-.04-.61-.13-.86-.09-.25-.21-.47-.36-.65-.16-.18-.34-.32-.56-.41-.22-.1-.46-.14-.73-.14-.19,0-.34,0-.46.01-.12,0-.23.02-.35.03,0,.04,0,.12,0,.24,0,.12,0,.26,0,.42v2.64Z"/>
        <path class="cls-1" d="M47.21,1.11c-.01-.33-.03-.67-.05-1.01.23,0,.46.01.69.02.23.01.46.02.69.02.38,0,.73,0,1.02-.01s.5-.02.6-.03c-.02.08-.03.19-.03.33,0,.08,0,.15,0,.19s.01.1.02.16c-.15-.01-.32-.02-.49-.03-.18-.01-.35-.02-.52-.03-.17-.01-.32-.02-.46-.02s-.23,0-.29,0c-.02.29-.03.57-.04.85,0,.28,0,.56,0,.85.34,0,.64-.01.91-.02.27-.01.56-.02.85-.04-.02.09-.03.16-.03.2s0,.1,0,.15c0,.04,0,.08.01.13,0,.04.02.11.03.19-.59-.05-1.18-.07-1.77-.07,0,.17,0,.33,0,.5,0,.17,0,.33,0,.5,0,.34,0,.66.02.97.3,0,.59,0,.89-.02.3-.02.59-.04.9-.08-.01.06-.02.11-.02.16,0,.05,0,.11,0,.19s0,.15,0,.19.01.09.02.12c-.14,0-.31,0-.52-.01s-.49,0-.84,0h-1.23c-.12,0-.21,0-.26,0-.06,0-.11,0-.15.01.02-.32.04-.65.05-.99.01-.33.02-.72.02-1.15v-1.06c0-.43,0-.81-.02-1.15Z"/>
        <path class="cls-1" d="M53.17.48c-.24,0-.43.07-.58.21s-.23.3-.23.49.06.35.18.47.26.23.44.33.37.19.57.28c.2.09.39.2.57.33.18.13.32.29.44.48.12.19.18.43.18.73,0,.26-.05.5-.15.71s-.24.4-.42.55c-.18.15-.4.27-.65.35-.25.08-.53.12-.84.12-.28,0-.53-.03-.75-.09-.22-.06-.39-.13-.5-.22.05-.18.1-.35.13-.5.04-.15.07-.31.09-.49h.15c.02.11.06.22.12.32.06.1.13.19.22.27.09.08.19.14.32.18.12.04.26.07.42.07.31,0,.54-.08.69-.23.15-.16.22-.34.22-.56,0-.2-.06-.36-.17-.48-.11-.12-.26-.23-.43-.33-.17-.1-.36-.19-.56-.28-.2-.09-.39-.2-.56-.33s-.31-.29-.43-.48c-.11-.19-.17-.43-.17-.73,0-.27.05-.51.14-.72.1-.21.22-.38.39-.52.16-.14.35-.25.56-.32s.43-.11.67-.11c.28,0,.53.03.74.1.21.07.39.16.54.28-.05.12-.09.24-.12.35s-.08.25-.13.42h-.12c-.17-.45-.48-.67-.94-.67Z"/>
        <path class="cls-1" d="M56.34,1.11c-.01-.33-.03-.67-.05-1.01.09.01.18.02.29.03.1,0,.22.01.35.01s.25,0,.35-.01c.1,0,.2-.02.29-.03-.02.34-.04.67-.05,1.01-.01.33-.02.72-.02,1.15v1.06c0,.43,0,.81.02,1.15.01.33.03.66.05.99-.09-.01-.18-.02-.29-.02h-.7c-.1,0-.2,0-.29.02.02-.32.04-.65.05-.99.01-.33.02-.72.02-1.15v-1.06c0-.43,0-.81-.02-1.15Z"/>
        <path class="cls-1" d="M63.37.7c-.25-.14-.55-.21-.91-.21-.24,0-.48.05-.71.15s-.45.25-.63.46c-.18.2-.33.46-.45.76-.11.3-.17.66-.17,1.07,0,.31.04.6.13.86s.21.49.37.69c.16.19.36.35.59.46.23.11.5.16.8.16.07,0,.14,0,.23-.01s.17-.02.25-.03c.08-.01.15-.02.22-.04.07-.02.12-.04.15-.06.01-.06.02-.14.02-.23s0-.2,0-.31c0-.42,0-.73-.02-.93-.02-.2-.03-.34-.03-.41.05.01.12.02.21.03s.21.01.37.01c.19,0,.33,0,.42-.01s.16-.02.21-.03c-.01.04-.02.11-.03.2s-.01.2-.02.32c0,.12,0,.25-.01.39,0,.14,0,.27,0,.39v.26c0,.13,0,.25,0,.36,0,.11,0,.19.02.24-.34.1-.69.18-1.04.23-.35.06-.7.09-1.04.09-.45,0-.86-.06-1.23-.18s-.7-.29-.97-.51c-.27-.23-.49-.5-.64-.82-.15-.32-.23-.68-.23-1.08,0-.49.08-.93.25-1.3.16-.37.39-.68.68-.93.29-.25.63-.43,1.02-.56s.82-.19,1.28-.19c.39,0,.74.04,1.02.12.29.08.57.2.85.35-.04.14-.08.27-.12.4s-.07.26-.1.4h-.11c-.17-.23-.37-.42-.62-.56Z"/>
        <path class="cls-1" d="M66.29,1.65c0-.36,0-.66-.02-.9-.01-.24-.02-.46-.02-.65.15.03.26.04.35.04s.2-.01.35-.04c.57.63,1.13,1.25,1.68,1.85.55.61,1.12,1.23,1.7,1.85v-1.43c0-.25,0-.5,0-.75,0-.25,0-.47,0-.68,0-.21,0-.39-.02-.54,0-.15-.02-.25-.03-.3.15.03.26.04.35.04s.21-.01.35-.04c-.03.47-.05.9-.06,1.28-.02.38-.03.74-.04,1.08-.01.34-.02.67-.02,1,0,.33,0,.68,0,1.06v.93c-.1-.01-.21-.02-.32-.02-.11,0-.22,0-.3.02-1.07-1.25-2.2-2.5-3.4-3.76,0,.15,0,.3-.01.45,0,.15,0,.3,0,.46v.9c0,.31,0,.58,0,.79,0,.22,0,.4.01.55s.01.27.02.37c0,.1.01.17.02.23-.06-.01-.12-.02-.19-.02h-.18c-.12,0-.24,0-.36.02.01-.04.02-.19.04-.44.02-.25.03-.56.05-.93.02-.37.03-.76.05-1.19s.02-.84.02-1.23Z"/>
      </g>
      <g>
        <path class="cls-1" d="M2.9,21.36c.01.96.06,1.73.13,2.29-.21-.02-.44-.04-.68-.04H.68c-.25,0-.47.01-.68.04.05-.76.09-1.54.11-2.34.02-.8.04-1.7.04-2.73v-2.51c0-1.02-.01-1.93-.04-2.73-.02-.79-.06-1.59-.11-2.39.21.02.44.05.68.06.25.02.52.03.83.03s.59,0,.83-.03c.25-.02.47-.04.68-.06-.06.37-.1.92-.12,1.66-.02.74-.03,1.56-.03,2.46v1.77c.42-.49.87-1.03,1.35-1.62.48-.59.94-1.16,1.39-1.71s.84-1.06,1.2-1.53c.36-.46.62-.81.78-1.04.17.02.34.05.52.06.17.02.34.03.52.03s.35,0,.53-.03c.18-.02.37-.04.58-.06-.21.21-.53.55-.96,1.02-.43.47-.89.97-1.38,1.52-.49.54-.95,1.07-1.4,1.58-.44.51-.79.92-1.04,1.21.39.6.83,1.27,1.31,2,.48.73.96,1.44,1.43,2.14.47.7.92,1.34,1.32,1.92.41.59.73,1.03.98,1.32-.36-.02-.68-.04-.96-.04h-1.64c-.27,0-.53.01-.8.04-.63-.94-1.25-1.89-1.85-2.86-.6-.97-1.22-1.93-1.85-2.89h-.04c0,1.34,0,2.5.02,3.46Z"/>
        <path class="cls-1" d="M23.52,23.65c-.3-.02-.58-.04-.84-.04h-1.57c-.27,0-.53.01-.79.04-.2-.6-.4-1.22-.61-1.85-.21-.63-.43-1.26-.67-1.89-.39-.01-.79-.02-1.18-.03-.39,0-.79,0-1.18,0-.32,0-.64,0-.96,0-.32,0-.64.02-.96.03-.25.63-.47,1.26-.68,1.89-.21.63-.4,1.25-.57,1.85-.15-.02-.29-.04-.43-.04h-.88c-.15,0-.31.01-.48.04.15-.32.34-.76.59-1.33.25-.57.52-1.21.81-1.92.3-.71.61-1.48.95-2.3.34-.82.68-1.65,1.02-2.49.34-.84.67-1.66,1-2.48s.63-1.57.9-2.27c.12.02.24.05.35.06s.23.03.35.03.24,0,.35-.03.23-.04.35-.06c.39,1.05.82,2.17,1.27,3.36.45,1.2.9,2.37,1.36,3.52.46,1.15.9,2.25,1.33,3.28.43,1.04.83,1.91,1.18,2.63ZM16.97,14.42c-.32.74-.62,1.47-.91,2.19-.28.72-.56,1.46-.83,2.21h3.38c-.27-.75-.54-1.49-.8-2.21-.27-.72-.55-1.45-.84-2.19Z"/>
        <path class="cls-1" d="M26.86,13.34c-.02-.79-.06-1.59-.11-2.39.21.02.44.05.68.06.25.02.52.03.83.03s.59,0,.83-.03c.25-.02.47-.04.68-.06-.05.8-.09,1.6-.11,2.39-.02.8-.04,1.7-.04,2.73v2.51c0,.7,0,1.38,0,2.03,0,.65.02,1.22.03,1.7.7,0,1.41-.02,2.11-.06s1.41-.1,2.13-.18c-.02.14-.04.26-.06.37-.01.11-.02.27-.02.46s0,.35.02.46c.01.11.03.2.06.28-.33-.01-.74-.02-1.23-.03-.49,0-1.16,0-2.01,0h-2.93c-.28,0-.49,0-.63,0-.14,0-.26.02-.36.03.05-.76.09-1.54.11-2.34.02-.8.04-1.7.04-2.73v-2.51c0-1.02-.01-1.93-.04-2.73Z"/>
        <path class="cls-1" d="M36.62,17.33c0-.91.17-1.77.51-2.57.34-.8.82-1.5,1.43-2.11.62-.6,1.36-1.08,2.24-1.42.87-.34,1.85-.52,2.92-.52.99,0,1.9.14,2.75.41.85.27,1.59.68,2.22,1.22.63.54,1.12,1.23,1.49,2.06.36.83.55,1.8.55,2.91,0,.92-.18,1.79-.53,2.59-.35.8-.84,1.5-1.46,2.1-.62.6-1.37,1.06-2.23,1.4-.86.33-1.81.5-2.85.5-.97,0-1.89-.12-2.75-.36s-1.6-.63-2.24-1.16c-.63-.54-1.14-1.22-1.51-2.05-.37-.83-.55-1.83-.55-2.99Z"/>
        <path class="cls-1" d="M57.72,11.85c-.57,0-1.03.17-1.39.5-.36.33-.54.72-.54,1.16s.14.83.42,1.12c.28.29.63.55,1.04.79.42.23.87.46,1.35.67.48.22.93.48,1.35.79.42.31.77.7,1.04,1.15.28.45.42,1.03.42,1.73,0,.62-.12,1.18-.35,1.69-.23.51-.57.95-1,1.31-.43.36-.95.64-1.54.83-.6.19-1.27.29-2.01.29-.67,0-1.26-.07-1.78-.21-.52-.14-.92-.32-1.19-.53.12-.43.23-.83.31-1.18.09-.36.16-.75.22-1.16h.35c.05.27.14.53.28.77.14.24.31.45.52.64.21.18.46.33.76.43.3.1.63.16,1,.16.74,0,1.28-.18,1.64-.55.35-.37.53-.81.53-1.33,0-.47-.14-.85-.41-1.15-.27-.3-.61-.56-1.02-.79-.41-.23-.85-.45-1.33-.67-.48-.22-.92-.48-1.33-.79-.41-.31-.75-.69-1.02-1.14-.27-.45-.41-1.03-.41-1.73,0-.64.11-1.21.34-1.7.23-.49.53-.91.92-1.24.38-.33.82-.59,1.32-.76.5-.17,1.03-.26,1.58-.26.67,0,1.25.08,1.75.24.5.16.93.38,1.28.67-.11.28-.21.56-.29.82-.08.27-.18.6-.31,1.01h-.28c-.39-1.06-1.14-1.59-2.24-1.59Z"/>
        <path class="cls-1" d="M65.26,13.34c-.02-.79-.06-1.59-.11-2.39.21.02.44.05.68.06.25.02.52.03.83.03s.59,0,.83-.03c.25-.02.47-.04.68-.06-.05.8-.09,1.6-.11,2.39-.02.8-.04,1.7-.04,2.73v2.51c0,1.02.01,1.93.04,2.73.02.79.06,1.57.11,2.34-.21-.02-.44-.04-.68-.04h-1.66c-.25,0-.47.01-.68.04.05-.76.09-1.54.11-2.34.02-.8.04-1.7.04-2.73v-2.51c0-1.02-.01-1.93-.04-2.73Z"/>
        <path class="cls-1" d="M78.5,23.89c-.79,0-1.53-.08-2.21-.25-.68-.17-1.28-.44-1.78-.83-.51-.39-.9-.89-1.19-1.5-.29-.61-.43-1.35-.43-2.23,0-.49,0-.93,0-1.32,0-.39,0-.75,0-1.08s0-.65,0-.96c0-.31,0-.63,0-.96,0-1,0-1.81-.02-2.42-.01-.62-.03-1.08-.06-1.39.25.02.5.05.76.06.26.02.51.03.76.03s.5,0,.76-.03c.26-.02.51-.04.76-.06-.12,1.2-.2,2.31-.22,3.34-.02,1.03-.04,2.07-.04,3.13,0,1.12.08,2.03.24,2.72.16.69.4,1.22.71,1.6.31.38.7.63,1.16.75.46.12.99.18,1.59.18.74,0,1.32-.18,1.74-.55.42-.37.74-.86.95-1.48.22-.62.35-1.32.4-2.12.05-.79.07-1.62.07-2.49s-.01-1.7-.04-2.54c-.02-.84-.06-1.69-.11-2.54.17.02.34.05.5.06.16.02.31.03.44.03.16,0,.31,0,.46-.03.15-.02.3-.04.46-.06-.02.27-.05.63-.07,1.09-.03.46-.05.98-.07,1.58-.02.6-.05,1.26-.06,1.98-.02.72-.03,1.48-.03,2.28,0,2.14-.46,3.68-1.39,4.61-.92.93-2.28,1.4-4.07,1.4Z"/>
      </g>
      <polygon class="cls-2" points="45.13 18.35 48.09 17.3 45.13 16.25 45.88 14.58 44.53 15.5 43.68 11.85 42.82 15.5 41.47 14.58 42.22 16.25 39.27 17.3 42.22 18.35 41.47 20.02 42.82 19.1 43.68 22.74 44.53 19.1 45.88 20.02 45.13 18.35"/>
    </g>
  </g>
</svg>