<?xml version="1.0" encoding="UTF-8"?>
<svg id="_レイヤー_2" data-name="レイヤー 2" xmlns="http://www.w3.org/2000/svg" viewBox="0 0 180.78 19.32">
  <defs>
    <style>
      .cls-1 {
        fill: #fc959a;
      }

      .cls-2 {
        opacity: .4;
      }
    </style>
  </defs>
  <g id="_レイヤー_1-2" data-name="レイヤー 1">
    <g class="cls-2">
      <path class="cls-1" d="M3.02,19.27c32.91-6.36,66.2-12.63,99.86-9.77l-2.1-1.96-.35.85,3.72.36-.43-.79v4.29c.77-1.5,7.06-1.59,8.64-1.81,2.9-.4,5.8-.77,8.71-1.11,6.54-.75,13.11-1.33,19.69-1.72,12.34-.72,24.69-.79,37.04-.29,3.53.14,4.18-6.88.68-7.02-16.16-.65-32.33-.29-48.44,1.13-8.06.71-16.23,1.48-24.19,2.95-4.58.85-8.58,4.01-5.88,8.96.83,1.52,2.6,1.45,3.72.36,2.57-2.49,3.2-5.95,2-9.28-.34-.94-1.03-1.87-2.1-1.96C69.44-.42,35.64,5.92,2.28,12.36c-3.3.64-2.98,7.62.74,6.9h0Z"/>
    </g>
  </g>
</svg>