<svg width="96" height="96" viewBox="0 0 96 96" fill="none" xmlns="http://www.w3.org/2000/svg">
<circle cx="48" cy="48" r="48" fill="#FFFCF3"/>
<mask id="mask0_74_459" style="mask-type:alpha" maskUnits="userSpaceOnUse" x="0" y="0" width="96" height="96">
<circle cx="48" cy="48" r="48" fill="#F0F9FB"/>
</mask>
<g mask="url(#mask0_74_459)">
<path d="M24.9969 35.4884C23.4101 52.6346 30.8035 60.6234 30.8035 60.6234C30.8035 60.6234 31.621 66.6547 25.2898 73.4782C25.2898 73.4782 30.8035 76.5393 37.4501 74.0268C44.0968 71.5143 49.4109 63.9734 49.4109 63.9734L41.3222 9.96704C41.3222 9.96704 27.3176 10.4248 24.9969 35.4884Z" fill="white"/>
<path d="M68.3048 59.4903C68.3048 59.4903 78.4534 34.7221 66.7405 17.3941C55.0308 0.0660666 41.3222 9.96686 41.3222 9.96686L52.5363 71.3323C52.5363 71.3323 60.7601 75.6919 65.9937 76.1399C71.2274 76.5878 74.3624 73.1501 74.3624 73.1501C66.4766 70.7285 68.3048 59.4935 68.3048 59.4935V59.4903Z" fill="white"/>
<path d="M67.8799 58.1562C67.8799 58.1562 77.6809 36.0434 65.968 18.7153C56.756 5.08471 46.308 8.29841 42.2685 10.2948C41.2353 10.8045 39.2365 12.4697 39.4457 13.6124L51.7638 72.6536C51.7638 72.6536 55.6681 73.4586 60.6861 75.02C70.516 78.0779 74.3624 73.1502 74.3624 73.1502C63.4928 70.1053 67.8799 58.1562 67.8799 58.1562Z" fill="#C28D88"/>
<path d="M63.5185 52.0275C61.3942 55.8806 59.8299 60.3214 60.0874 64.7556C60.3127 68.0343 61.9993 71.0727 64.555 73.095C65.3918 73.8027 66.3381 74.387 67.2941 74.9778L67.2587 75.059C65.6429 74.5201 64.0979 73.7021 62.8104 72.5659C58.6164 68.9205 58.8192 62.9183 60.4994 58.0621C61.2461 55.9196 62.2311 53.8745 63.4477 51.9788L63.5218 52.0275H63.5185Z" fill="#6F413D"/>
<path d="M26.088 35.9785C23.4519 52.9916 31.621 61.6751 31.621 61.6751C31.621 61.6751 32.7089 67.1449 26.3777 73.9683C26.3777 73.9683 31.8914 77.0294 38.538 74.5169C45.1847 72.0044 50.4988 64.4635 50.4988 64.4635L42.7224 12.525C42.7224 12.525 30.3078 8.75292 26.088 35.9817V35.9785Z" fill="#C28D88"/>
<path d="M64.8801 77.0098C63.7632 76.5196 62.7461 75.8282 61.906 74.942C54.3999 67.044 58.2334 51.7059 58.2334 51.7059L49.0568 51.1963H49.044H49.0311L39.8545 51.7059C39.8545 51.7059 43.7813 67.4271 35.8987 75.2341C35.168 75.958 34.3022 76.5261 33.3656 76.9416C31.6371 77.7077 28.1223 79.1198 23.0302 80.4734C15.5371 82.4633 11.5941 85.0473 11.5941 85.0473L49.3433 91.5104L86.4938 85.0473C86.4938 85.0473 82.5508 82.4633 75.0577 80.4734C70.1169 79.162 66.66 77.7921 64.8801 77.013V77.0098Z" fill="white"/>
<path d="M50.6823 11.5802L50.6887 11.2913C50.6887 11.2913 50.0675 11.3042 49.0472 11.3951C48.0301 11.3042 47.4056 11.2913 47.4056 11.2913L47.4121 11.5802C41.6377 12.356 30.3754 15.1867 31.7272 25.477C31.7272 25.477 33.1338 44.7722 38.4801 52.4331C43.6333 59.8214 47.9528 60.568 47.9528 60.568H50.1351C50.1351 60.568 54.4514 59.8214 59.6078 52.4331C64.9541 44.7722 66.3607 25.477 66.3607 25.477C67.7158 15.1899 56.4502 12.356 50.6759 11.5802H50.6823Z" fill="white"/>
<path d="M31.8431 44.519C34.3119 50.0375 36.8708 46.9244 36.8708 46.9244L33.2465 36.2803C33.2465 36.2803 28.8787 37.8904 31.8431 44.5223V44.519Z" fill="white"/>
<path d="M64.8382 36.2769L61.2139 46.9211C61.2139 46.9211 63.7696 50.0342 66.2416 44.5157C69.2092 37.887 64.8382 36.2737 64.8382 36.2737V36.2769Z" fill="white"/>
<path d="M39.3202 30.32C37.1926 30.6089 35.226 32.4105 35.226 32.4105C36.256 31.9593 37.7752 31.0926 39.3781 30.9238C42.4005 30.6024 45.0721 31.823 45.1751 31.7872C45.2781 31.7515 45.8027 31.6834 45.2877 30.7485C44.7727 29.8136 39.3202 30.3232 39.3202 30.3232V30.32Z" fill="#734C49"/>
<path d="M52.694 30.7488C52.179 31.6837 52.7036 31.7551 52.8066 31.7876C52.9096 31.8233 55.5812 30.5995 58.6036 30.9241C60.2065 31.0961 61.7257 31.9629 62.7557 32.4108C62.7557 32.4108 60.7923 30.6092 58.6615 30.3203C58.6615 30.3203 53.209 29.8106 52.694 30.7455V30.7488Z" fill="#734C49"/>
<path d="M46.9614 47.3496C47.264 47.5898 47.5408 47.6937 47.8981 47.7391C47.9979 47.7521 48.1041 47.7683 48.2747 47.8138C48.3197 47.645 48.2554 47.4762 48.1556 47.3528C47.8434 47.0022 47.2704 46.9827 46.9614 47.3528V47.3496Z" fill="#734C49"/>
<path d="M49.8261 47.3529C49.7231 47.4795 49.6587 47.6451 49.707 47.8139C49.8776 47.7684 49.9838 47.7554 50.0836 47.7392C50.4409 47.6905 50.7145 47.5899 51.0203 47.3497C50.7113 46.9796 50.1383 47.0023 49.8261 47.3497V47.3529Z" fill="#734C49"/>
<path d="M41.9692 14.6997C39.1206 12.804 27.5847 19.767 29.3518 26.1652C31.3796 33.5048 33.7776 37.5138 33.7776 37.5138C34.7786 28.0609 41.5958 19.793 41.5958 19.793C41.5958 19.793 44.8178 16.5987 41.9692 14.703V14.6997Z" fill="#C28D88"/>
<path d="M60.6861 50.5503C62.9681 47.5898 64.2621 41.2436 64.4777 37.5007C63.6891 39.6107 63.0937 41.8506 62.5079 44.0255C61.9864 45.9505 61.3781 48.7032 60.6861 50.5503Z" fill="#6F413D"/>
<path d="M50.8786 60.0615C50.6147 60.2239 50.3508 60.3894 50.09 60.5647C54.8763 59.2273 59.1025 55.3157 60.6861 50.5503C58.1529 54.4165 54.8183 57.6854 50.8786 60.0615Z" fill="#6F413D"/>
<path d="M33.4943 37.5007C33.71 41.25 35.0039 47.593 37.286 50.5503C36.5907 48.6935 35.9888 45.957 35.4642 44.0255C34.8784 41.8538 34.2829 39.6107 33.4943 37.5007Z" fill="#6F413D"/>
<path d="M37.2827 50.5503C38.8664 55.3157 43.0925 59.2273 47.8788 60.5647C47.6181 60.3894 47.3541 60.2239 47.0902 60.0615C43.1537 57.6821 39.8191 54.4132 37.2827 50.5503Z" fill="#6F413D"/>
<path d="M40.4017 56.0364C40.3116 57.9906 40.2279 59.9415 40.1184 61.8795C39.8931 64.5089 39.8963 67.1967 39.0209 69.6832C37.2795 73.7637 34.8269 76.5976 30.4237 77.685C26.3294 78.9056 13.8923 82.0479 11.504 85.0181L11.578 85.07C12.254 84.3916 13.2099 84.08 14.0725 83.7099C16.7763 82.6776 19.5669 81.8888 22.3318 81.0351C24.1826 80.4702 26.0269 79.8794 27.8712 79.2886C29.722 78.6654 31.6307 78.159 33.3269 77.1332C36.1047 75.4484 37.9329 72.7054 39.5101 69.9397C40.3051 68.375 40.5433 66.5767 40.6785 64.853C40.8942 61.9152 40.8137 58.9612 40.4822 56.0364H40.3953H40.4017Z" fill="#6F413D"/>
<path d="M67.6643 77.685C63.2578 76.5976 60.8116 73.7669 59.0671 69.6832C58.1916 67.1967 58.1948 64.5121 57.9695 61.8795C57.86 59.9383 57.7796 57.9906 57.6862 56.0364H57.5993C57.374 57.9808 57.2742 59.9415 57.2839 61.9022C57.3289 64.366 57.3933 66.8915 58.2463 69.2353C58.4104 69.641 58.713 70.2026 58.9351 70.5759C60.4382 73.1079 62.186 75.5783 64.7545 77.1299C66.4508 78.1557 68.3595 78.6621 70.2103 79.2854C72.0578 79.8762 73.9021 80.467 75.7497 81.0318C78.5178 81.8856 81.3052 82.6744 84.0089 83.7067C84.8748 84.0767 85.8307 84.3884 86.5034 85.0668L86.5775 85.0149C84.1892 82.0446 71.7488 78.8991 67.6578 77.6818L67.6643 77.685Z" fill="#6F413D"/>
<path d="M38.5928 23.3509C37.669 24.7306 36.7935 26.1491 36.0146 27.6261C35.0425 29.47 34.1187 31.3917 33.7325 33.4692C33.5651 34.1704 33.5072 34.943 33.4364 35.6604C33.4364 36.183 33.4428 36.7219 33.4782 37.238H33.5651C34.1413 34.3944 35.0908 31.739 36.1562 29.0707C37.5982 25.6622 39.523 22.4615 41.6634 19.4458L41.5958 19.3906C40.5143 20.6436 39.5326 21.9843 38.5895 23.3509H38.5928Z" fill="#6F413D"/>
<path d="M40.9424 16.6475L40.8974 16.6118C39.6421 18.183 38.4511 19.8093 37.3149 21.4713C36.1852 23.1398 35.1133 24.8506 34.1284 26.6165C32.3549 29.8854 30.4462 33.5957 31.0159 37.4424C31.0642 37.6924 31.1446 37.9391 31.2122 38.1826L31.2702 38.1663C31.2058 37.6697 31.1511 37.173 31.1833 36.6763C31.6886 30.369 37.2602 21.757 40.9457 16.6475H40.9424Z" fill="#6F413D"/>
<path d="M34.3923 47.3074C33.4653 46.7101 32.9214 45.7038 32.3999 44.7559C30.9741 42.4025 30.2016 38.9193 32.416 36.7963L32.3645 36.7217C30.0374 38.4519 30.2531 41.8831 31.2702 44.308C31.8367 45.8856 32.8119 47.7002 34.6209 47.9891C34.7689 48.0151 34.9653 47.9988 35.1166 47.9826L35.2389 47.9664L35.3547 47.9307C35.5865 47.8722 35.7925 47.7424 35.9824 47.6158L35.9438 47.5346C35.3612 47.6807 34.8269 47.5704 34.3891 47.3074H34.3923Z" fill="#6F413D"/>
<path d="M65.6365 36.6274L65.585 36.7021C67.5677 38.5816 67.1557 41.6785 66.0066 43.9021C65.3629 45.0934 64.7642 46.4438 63.6087 47.2132C63.1709 47.4761 62.6366 47.5897 62.054 47.4404L62.0154 47.5216C62.2053 47.6514 62.4113 47.778 62.643 47.8364C62.7267 47.8657 62.804 47.8819 62.8812 47.8884C63.0293 47.9046 63.2289 47.9208 63.3769 47.8949C65.1858 47.6092 66.1611 45.7946 66.7276 44.2137C67.7479 41.7856 67.9604 38.3609 65.6332 36.6274H65.6365Z" fill="#6F413D"/>
<path d="M44.8081 50.758C44.7083 53.1731 48.8766 52.9069 48.8766 52.9069V50.0179C48.3745 49.268 44.8081 50.758 44.8081 50.758Z" fill="#F091A0"/>
<path d="M48.6062 50.0179V52.9069C48.6062 52.9069 52.7712 53.1472 52.6747 50.758C52.6747 50.758 49.1115 49.268 48.6062 50.0179Z" fill="#F091A0"/>
<path d="M46.3467 51.0372C45.9315 51.1767 45.5549 50.9073 45.2394 50.6703C44.8854 50.4853 44.5088 50.3587 44.0517 50.323L44.0195 50.3749C44.1418 50.5794 44.306 50.7255 44.4766 50.8554C44.8242 51.1508 45.2781 51.1865 45.7094 51.1995C46.3306 51.3423 46.9968 51.5143 47.6309 51.3553C48.0397 51.2611 48.3809 51.1216 48.8058 50.9852L48.8154 50.9268C48.0462 50.4626 47.1288 50.8034 46.3467 51.0404V51.0372Z" fill="#734C49"/>
<path d="M43.6944 51.0047C44.0453 51.5793 45.2266 50.6087 45.2266 50.6087C45.2266 50.6087 44.5635 50.3945 44.4347 50.3652C44.1612 50.3068 43.3372 50.4204 43.6944 51.0047Z" fill="#734C49"/>
<path d="M53.5534 50.3329C53.4214 50.3588 52.7584 50.5633 52.7584 50.5633C52.7584 50.5633 53.9268 51.5534 54.284 50.9854C54.6478 50.4075 53.827 50.2809 53.5534 50.3329Z" fill="#734C49"/>
<path d="M52.1468 50.9788C51.5771 51.1963 50.9688 50.7451 50.3829 50.6996C49.9613 50.6477 49.4688 50.6477 49.0922 50.9009L49.1019 50.9593C49.7263 51.1606 50.2542 51.3976 50.9076 51.3911C51.3357 51.4235 51.7863 51.2353 52.1983 51.1736C52.8839 51.1833 53.5019 50.9593 53.8881 50.3491L53.8559 50.2971C53.1478 50.3328 52.694 50.638 52.1468 50.9788Z" fill="#734C49"/>
<path d="M46.3692 53.3064C47.8434 54.6828 50.3669 54.7347 51.8249 53.3064C50.9076 53.5596 50.0418 53.7933 49.1019 53.7706C48.1652 53.7803 47.293 53.5401 46.3692 53.3064Z" fill="#734C49"/>
<path d="M42.761 35.7023C42.7385 35.8192 42.3941 36.3516 42.3941 36.3516C42.3941 36.3516 42.6516 36.647 42.7835 36.4295C42.9187 36.2152 42.7835 35.5822 42.761 35.6991V35.7023Z" fill="#734C49"/>
<path d="M41.4767 35.9945C38.0585 35.6407 37.0092 38.0461 37.0092 38.0461C37.0092 38.0461 37.6432 38.2701 38.3449 37.7409C38.8889 37.3319 39.5713 36.9554 39.5713 36.9554C42.5293 35.3323 45.027 39.5004 45.027 39.5004C45.027 39.5004 43.9713 36.251 41.4767 35.9945Z" fill="#734C49"/>
<path d="M35.9277 38.6012C35.9277 38.6012 37.3503 39.4192 38.0102 37.9844L37.6819 37.6663C37.6819 37.6663 36.8321 38.7245 35.9309 38.6012H35.9277Z" fill="#734C49"/>
<path d="M36.1785 36.7699C36.169 36.7538 36.1594 36.741 36.1562 36.741C36.1626 36.7506 36.1721 36.7603 36.1785 36.7699Z" fill="#734C49"/>
<path d="M36.1787 36.7703C36.2785 36.9326 36.7259 37.7474 37.7688 37.4942L37.7752 37.1111C37.7752 37.1111 36.6808 37.5331 36.1787 36.7703Z" fill="#734C49"/>
<path d="M36.9705 35.9392C37.1025 36.1535 37.6915 37.2279 39.0691 36.8936L39.0788 36.3904C39.0788 36.3904 37.6336 36.9455 36.9738 35.9392H36.9705Z" fill="#734C49"/>
<path d="M36.9705 35.9393C36.9577 35.9166 36.948 35.9004 36.9416 35.9004C36.9512 35.9134 36.9609 35.9264 36.9705 35.9393Z" fill="#734C49"/>
<path d="M39.9511 34.7122C39.9157 34.9004 39.6968 35.8061 40.6367 36.3287L40.8974 36.0528C40.8974 36.0528 39.8062 35.6146 39.9511 34.7122Z" fill="#734C49"/>
<path d="M39.9511 34.7122C39.9543 34.6927 39.9575 34.6798 39.9543 34.6765C39.9543 34.6895 39.9543 34.6992 39.9511 34.7122Z" fill="#734C49"/>
<path d="M41.4059 35.2739C41.4124 35.3908 41.2096 35.9978 41.2096 35.9978C41.2096 35.9978 41.5315 36.2185 41.6087 35.9783C41.686 35.7381 41.4027 35.157 41.4092 35.2771L41.4059 35.2739Z" fill="#734C49"/>
<path d="M36.4105 37.8675C36.3171 37.8318 36.2302 37.7831 36.1433 37.7312C36.2978 37.8675 36.4684 37.9876 36.6712 38.0461C36.8933 38.1078 37.125 38.098 37.3278 37.9552L37.1765 37.7929C36.9866 37.9844 36.6519 37.9682 36.4105 37.8675Z" fill="#734C49"/>
<path d="M38.7666 35.3453C38.8953 35.8322 39.243 36.3581 39.8094 36.3386L39.7708 36.1179C39.3009 36.1925 38.9372 35.7381 38.7666 35.342V35.3453Z" fill="#734C49"/>
<path d="M41.4478 36.53C40.4017 36.3969 39.4489 37.1435 39.317 38.1953C39.185 39.2503 39.9253 40.2112 40.9682 40.3442C42.0143 40.4773 42.967 39.7307 43.099 38.679C43.2309 37.624 42.4906 36.6631 41.4478 36.53Z" fill="#734C49"/>
<path d="M37.8267 36.2411C37.3568 36.6372 36.9544 37.1144 36.6841 37.6597L36.7098 37.6727C37.0478 37.1825 37.4887 36.767 37.9716 36.4294C38.4769 36.1048 38.9822 35.8549 39.4876 35.5173L39.4779 35.488C38.8535 35.5237 38.2806 35.8256 37.8267 36.2411Z" fill="#734C49"/>
<path d="M40.3985 35.3518C41.1066 35.4394 41.8566 35.4784 42.5679 35.8192C43.2374 36.1536 43.7556 36.6178 44.1966 37.2345L44.2223 37.2216C43.8522 35.5725 41.8211 35.2024 40.3985 35.3518Z" fill="#734C49"/>
<path d="M42.3426 38.6855C42.04 38.6855 41.7922 38.9323 41.7922 39.2406C41.7922 39.549 42.0368 39.7957 42.3426 39.7957C42.6484 39.7957 42.893 39.549 42.893 39.2406C42.893 38.9323 42.6484 38.6855 42.3426 38.6855Z" fill="white"/>
<path d="M37.3664 39.1758C37.2763 39.2342 37.2956 39.3543 37.2731 39.4419C37.2248 39.627 37.2055 39.8152 37.2055 40.0068L37.257 40.0327C37.3375 39.9776 37.4051 39.9159 37.4791 39.8574C37.5499 39.799 37.6175 39.7373 37.6787 39.6789C37.743 39.6205 37.8492 39.5913 37.8557 39.5036C37.8686 39.4257 37.8396 39.2472 37.7591 39.1141C37.5724 39.0524 37.4501 39.1206 37.3664 39.1725V39.1758Z" fill="#734C49"/>
<path d="M38.1421 39.8184C38.081 39.8574 38.1035 39.9386 38.0939 40.0002C38.0778 40.1236 38.0713 40.2469 38.0874 40.38L38.1293 40.3963C38.2355 40.3216 38.3256 40.2404 38.4125 40.1625C38.4544 40.1236 38.5284 40.1041 38.5252 40.0457C38.5284 39.9937 38.4866 39.8704 38.4222 39.7795C38.287 39.734 38.2001 39.7795 38.1454 39.8184H38.1421Z" fill="#734C49"/>
<path d="M38.7601 40.2145C38.7054 40.26 38.7344 40.4872 38.7505 40.5683C38.8052 40.5943 38.8985 40.4645 38.9468 40.432C38.9726 40.4093 39.0176 40.3995 39.0144 40.3671C39.0144 40.3411 38.9855 40.2502 38.9372 40.1983C38.8503 40.1691 38.7988 40.1918 38.7601 40.2178V40.2145Z" fill="#734C49"/>
<path d="M39.3846 40.7501C39.6002 40.7988 39.7419 40.5846 39.5841 40.3931C39.3395 40.432 39.317 40.5554 39.3846 40.7501Z" fill="#734C49"/>
<path d="M39.9929 40.7306C39.9833 40.7501 39.9575 40.7631 39.9704 40.7793C39.98 40.7923 40.0283 40.8443 40.0798 40.8572C40.1442 40.8508 40.1732 40.828 40.1893 40.8021C40.2118 40.7501 40.112 40.63 40.0669 40.5911C40.0348 40.63 40.0187 40.6852 39.9929 40.7274V40.7306Z" fill="#734C49"/>
<path d="M55.3012 36.4326C55.4363 36.6468 55.6906 36.3547 55.6906 36.3547C55.6906 36.3547 55.343 35.819 55.3237 35.7054C55.3012 35.5886 55.166 36.2216 55.3012 36.4358V36.4326Z" fill="#734C49"/>
<path d="M56.608 35.9945C54.1167 36.251 53.0577 39.5004 53.0577 39.5004C53.0577 39.5004 55.5554 35.3323 58.5134 36.9554C58.5134 36.9554 59.1958 37.3319 59.7398 37.7409C60.4415 38.2701 61.0755 38.0461 61.0755 38.0461C61.0755 38.0461 60.023 35.6407 56.608 35.9945Z" fill="#734C49"/>
<path d="M60.406 37.6663L60.0777 37.9844C60.7376 39.4192 62.1602 38.6012 62.1602 38.6012C61.2558 38.7245 60.4093 37.6663 60.4093 37.6663H60.406Z" fill="#734C49"/>
<path d="M61.9027 36.7699C61.9027 36.7699 61.9187 36.7506 61.9251 36.741C61.9219 36.741 61.9123 36.7538 61.9027 36.7699Z" fill="#734C49"/>
<path d="M60.3095 37.1111L60.3159 37.4942C61.3588 37.7474 61.803 36.9326 61.906 36.7703C61.4071 37.5331 60.3095 37.1111 60.3095 37.1111Z" fill="#734C49"/>
<path d="M61.1431 35.9004C61.1431 35.9004 61.127 35.9166 61.1142 35.9393C61.1238 35.9264 61.1335 35.9134 61.1431 35.9004Z" fill="#734C49"/>
<path d="M59.0091 36.3904L59.0188 36.8936C60.3964 37.2279 60.9822 36.1535 61.1174 35.9392C60.4575 36.9455 59.0123 36.3904 59.0123 36.3904H59.0091Z" fill="#734C49"/>
<path d="M57.1873 36.0528L57.448 36.3287C58.3879 35.8029 58.169 34.9004 58.1336 34.7122C58.2785 35.6146 57.1873 36.0528 57.1873 36.0528Z" fill="#734C49"/>
<path d="M58.1336 34.7122C58.1336 34.7122 58.1336 34.6895 58.1304 34.6765C58.1304 34.6765 58.1304 34.6927 58.1336 34.7122Z" fill="#734C49"/>
<path d="M56.4792 35.975C56.5565 36.2152 56.8783 35.9944 56.8783 35.9944C56.8783 35.9944 56.6723 35.3907 56.682 35.2706C56.6884 35.1537 56.4052 35.7315 56.4824 35.9717L56.4792 35.975Z" fill="#734C49"/>
<path d="M60.9082 37.7896L60.7569 37.9519C61.1464 38.2279 61.6292 38.0169 61.9414 37.7312C61.6453 37.9162 61.1882 38.0591 60.9082 37.7896Z" fill="#734C49"/>
<path d="M58.3139 36.1178L58.2753 36.3385C58.8385 36.358 59.1894 35.8321 59.3181 35.3452C59.1475 35.7412 58.7838 36.1957 58.3139 36.121V36.1178Z" fill="#734C49"/>
<path d="M56.6369 36.5301C55.5908 36.6632 54.8538 37.6273 54.9857 38.679C55.1177 39.734 56.0736 40.4774 57.1165 40.3443C58.1626 40.2112 58.8997 39.2471 58.7677 38.1953C58.6357 37.1403 57.6798 36.397 56.6369 36.5301Z" fill="#734C49"/>
<path d="M60.258 36.2411C59.8041 35.8256 59.2312 35.5237 58.6068 35.488L58.5971 35.5173C59.5981 36.147 60.7054 36.6437 61.3749 37.6727L61.4006 37.6597C61.127 37.1144 60.7247 36.6404 60.258 36.2411Z" fill="#734C49"/>
<path d="M53.8592 37.2214L53.8849 37.2344C54.7282 35.9684 56.196 35.3614 57.6798 35.3841C56.3505 35.1374 54.1971 35.6081 53.8592 37.2247V37.2214Z" fill="#734C49"/>
<path d="M58.0049 38.6531C57.7023 38.6531 57.4545 38.8998 57.4545 39.2082C57.4545 39.5166 57.6991 39.7633 58.0049 39.7633C58.3107 39.7633 58.5553 39.5166 58.5553 39.2082C58.5553 38.8998 58.3107 38.6531 58.0049 38.6531Z" fill="white"/>
<path d="M60.7183 39.1757C60.6346 39.1237 60.5123 39.0556 60.3256 39.1173C60.2451 39.2503 60.2161 39.4289 60.229 39.5068C60.2355 39.5944 60.3417 39.6237 60.406 39.6821C60.538 39.8054 60.6796 39.9255 60.8277 40.0359L60.8792 40.0099C60.8792 39.8184 60.8599 39.6301 60.8116 39.4451C60.7891 39.3542 60.8084 39.2341 60.7183 39.1789V39.1757Z" fill="#734C49"/>
<path d="M59.9426 39.8184C59.8878 39.7827 59.8009 39.7372 59.6657 39.7794C59.6014 39.8703 59.5595 39.9969 59.5627 40.0456C59.5627 40.104 59.6336 40.1235 59.6754 40.1625C59.7623 40.2404 59.8492 40.3215 59.9586 40.3962L60.0005 40.38C60.0166 40.2469 60.0101 40.1235 59.9941 40.0002C59.9844 39.9385 60.0069 39.8573 59.9458 39.8184H59.9426Z" fill="#734C49"/>
<path d="M59.3213 40.2144C59.2859 40.1916 59.2312 40.1657 59.1443 40.1949C59.096 40.2468 59.0671 40.3377 59.0671 40.3637C59.0542 40.3864 59.2151 40.4935 59.302 40.5747C59.3664 40.565 59.3471 40.3864 59.3471 40.328C59.3439 40.289 59.36 40.2371 59.3213 40.2111V40.2144Z" fill="#734C49"/>
<path d="M58.5006 40.3931C58.3461 40.5846 58.4845 40.7988 58.7001 40.7501C58.7645 40.5554 58.7452 40.432 58.5006 40.3931Z" fill="#734C49"/>
<path d="M58.0306 40.6105L58.0178 40.5911C57.9759 40.63 57.8729 40.7469 57.8954 40.8021C57.9115 40.828 57.9405 40.8508 58.0049 40.8572C58.0564 40.8443 58.1047 40.7923 58.1143 40.7793C58.1272 40.7631 58.1014 40.7469 58.0918 40.7306C58.0693 40.6949 58.0564 40.6398 58.0306 40.6105Z" fill="#734C49"/>
<path d="M41.274 17.881C41.2192 18.0823 44.8178 33.2516 55.784 32.9172C66.7501 32.5829 60.7118 21.1888 60.7118 21.1888C60.7118 21.1888 43.5979 9.38256 41.274 17.8843V17.881Z" fill="#C28D88"/>
<path d="M53.3635 12.1387C52.0052 15.3524 51.8539 17.4591 51.8539 17.4591C51.7026 18.5336 53.209 32.1512 60.1067 37.2769C66.0259 41.6755 67.3971 43.5615 67.8477 44.873C68.3016 46.1812 68.6009 29.6907 67.8477 26.7951C67.0945 23.8995 54.7218 8.92497 53.3635 12.1387Z" fill="#C28D88"/>
<path d="M63.1098 21.4908V38.8188C63.1098 38.8188 67.8445 44.8696 64.1623 57.1207C62.7557 61.7951 61.4038 65.064 56.6659 65.2945C56.6659 65.2945 62.7557 66.6676 69.3477 58.0523C74.5555 51.2451 73.5964 40.8347 71.9355 32.4076C70.2746 23.9806 63.113 21.4875 63.113 21.4875L63.1098 21.4908Z" fill="white"/>
<path d="M62.8973 20.5493L63.1098 38.8187C63.1098 38.8187 67.6353 43.9282 63.9499 56.1792C62.5433 60.8537 61.4038 65.0639 56.6659 65.2944C56.6659 65.2944 62.8555 65.8365 69.4152 56.1208C74.2144 49.0149 73.3936 41.6461 70.9699 33.4106C68.2951 24.3214 62.9006 20.5493 62.9006 20.5493H62.8973Z" fill="#C28D88"/>
<path d="M54.078 9.96704L41.6666 11.2915L33.4943 17.4592L40.9424 16.6476L48.8154 17.8L70.5901 32.213L64.732 16.9982L54.078 9.96704Z" fill="#C28D88"/>
<path d="M42.0915 15.9367C41.422 20.0139 43.0764 24.1592 45.8317 27.097C47.5505 28.9181 49.6652 30.3821 51.7831 31.6773C53.1124 32.4142 54.6123 32.6479 56.1058 32.8525L56.1026 32.9401C55.0694 33.0375 54.0104 33.0894 52.9805 32.8622C51.9408 32.6772 50.9366 32.1773 50.0514 31.6416C46.5173 29.4862 43.4981 26.1297 42.2621 22.1044C41.6827 20.1048 41.5186 17.9461 42.0046 15.9172L42.0915 15.9335V15.9367Z" fill="#6F413D"/>
<path d="M53.2219 17.4655C52.9386 23.7274 54.181 30.6287 58.5617 35.3227C60.3063 37.1308 62.4274 38.6013 64.4713 40.0783C65.3758 40.6918 66.718 41.6787 67.6417 42.2273L67.6321 42.3149C66.3896 41.854 65.2728 41.2437 64.1398 40.6074C61.8931 39.2927 59.6722 37.8969 57.9147 35.9167C57.0489 34.9137 56.3086 33.8132 55.6906 32.6543C53.8463 29.1874 53.0738 25.2401 52.9772 21.3382C52.9483 20.0398 52.9837 18.7445 53.1317 17.4558L53.2186 17.4655H53.2219Z" fill="#6F413D"/>
<path d="M48.3197 22.9353C48.5064 24.7564 49.1051 26.5418 49.9999 28.1259C50.811 29.4925 51.8185 30.7196 52.8968 31.8785C53.0513 32.0505 53.2122 32.2128 53.3635 32.3979L53.3281 32.4466C51.6511 31.5798 50.354 30.0769 49.5847 28.3499C48.7607 26.6684 48.2876 24.8116 48.265 22.9385H48.323L48.3197 22.9353Z" fill="#6F413D"/>
<path d="M65.1858 49.3169C65.3629 49.3039 65.5142 49.4759 65.5206 49.635C65.5238 50.4173 65.2953 51.1801 65.1247 51.9333C64.011 56.0364 61.9317 61.3991 57.9212 63.3565C57.2227 63.6779 56.4663 63.8597 55.7035 63.8856C56.4631 63.8369 57.2099 63.6259 57.889 63.2883C61.98 61.2757 64.5292 54.053 64.938 49.7129C64.9541 49.8265 65.0925 49.9206 65.2116 49.9109L65.1858 49.3169Z" fill="#6F413D"/>
<path d="M69.0258 60.6623C68.5204 63.019 68.543 65.6289 69.3637 67.9272C70.1749 70.3034 72.0675 72.1829 74.3624 73.147C73.1908 72.712 72.0675 72.0888 71.134 71.2221C69.2221 69.4886 68.2565 66.8982 68.0344 64.3532C67.9185 63.0612 67.9411 61.7822 68.1599 60.4675L69.0226 60.6623H69.0258Z" fill="#6F413D"/>
<path d="M38.8503 67.8297C33.8709 65.856 29.3615 60.211 27.2725 55.3385C25.058 49.9661 24.4883 44.0645 24.5785 38.2896C24.6364 35.394 24.955 32.505 25.4668 29.6548C26.3745 23.8312 28.354 18.1602 32.8313 14.1414C34.4503 12.6774 36.3043 11.4731 38.3256 10.6778C38.9983 10.4148 39.6807 10.1844 40.392 10.0513L40.4113 10.1389C33.6166 12.4177 28.9913 18.8321 27.2468 25.6361C26.1717 29.7782 25.4282 34.0436 25.0709 38.3156C24.572 44.0159 25.3864 49.8882 27.9356 55.0366C29.7542 58.8833 32.313 62.3956 35.4288 65.275C36.4909 66.2099 37.6078 67.1188 38.8792 67.7485L38.8503 67.8329V67.8297Z" fill="#6F413D"/>
<path d="M29.1716 46.0059C28.6759 52.219 31.0577 58.3607 34.8462 63.1878C36.1111 64.8141 37.5242 66.3301 39.0144 67.7908C37.2892 66.619 35.7088 65.2166 34.3151 63.6358C30.1662 58.9645 27.6362 52.2515 29.1684 46.0091L29.1716 46.0059Z" fill="#6F413D"/>
<path d="M30.7359 61.2012C31.061 62.5061 30.9032 63.8695 30.8002 65.194C30.6425 66.5184 30.4011 67.8396 30.0117 69.1315C29.6125 70.4365 29.1458 71.7642 28.2124 72.8062C27.3272 73.858 25.7662 74.5981 24.4304 74.0722L24.4433 73.9846C25.1063 73.9618 25.7114 73.7865 26.2232 73.4717C26.735 73.1568 27.1663 72.725 27.5332 72.2349C29.0621 70.219 29.9054 67.6383 30.3625 65.129C30.5749 63.85 30.8324 62.5191 30.649 61.2271L30.7326 61.2012H30.7359Z" fill="#6F413D"/>
<path d="M35.5704 65.5055C35.2292 70.1508 31.6468 75.1693 26.5387 74.0721V73.9845C31.5824 72.9749 34.3247 70.628 35.4835 65.499L35.5704 65.5088V65.5055Z" fill="#6F413D"/>
<path d="M62.7911 30.8982C63.3641 32.2324 63.8018 33.6996 64.3586 35.0403C65.9229 39.1434 68.0054 42.9772 70.545 46.5577L70.4839 46.6226C68.0183 44.8891 66.5152 42.1267 65.4466 39.3674C64.5968 37.3126 63.908 35.2026 63.319 33.0634C63.1452 32.4693 62.9231 31.5215 62.7203 30.9534L62.7911 30.9014V30.8982Z" fill="#6F413D"/>
<path d="M34.6531 47.9893C34.8945 53.3779 36.1079 61.4511 40.701 64.8239L40.6721 64.8758C37.7012 63.5676 36.3107 60.2662 35.5865 57.2765C35.2099 55.7541 34.9524 54.2089 34.7915 52.6572C34.6402 51.1056 34.5629 49.5474 34.5951 47.9893H34.6531Z" fill="#6F413D"/>
<path d="M37.6819 51.5439C37.3536 53.5598 37.5016 55.6503 37.9844 57.6207C38.4511 59.3379 39.1335 60.9772 39.8931 62.5776C39.9994 62.8113 40.1152 63.0418 40.215 63.2853L40.1667 63.3177C38.744 61.7823 37.8621 59.7859 37.5242 57.7213C37.1347 55.6795 37.125 53.5435 37.6239 51.5244L37.6819 51.5406V51.5439Z" fill="#6F413D"/>
<path d="M36.1304 48.6904C36.1304 48.6904 36.1208 48.7326 36.1594 48.7391C36.1819 48.7359 36.1723 48.7391 36.1723 48.7489C36.1465 48.8592 36.1047 49.0735 36.0822 49.1871C35.5479 51.6834 35.5672 54.2024 35.7217 56.7409L35.6669 56.7604C34.9492 55.5301 34.946 54.0369 35.168 52.6735C35.3258 51.4789 35.5994 50.3005 35.9631 49.1546C35.9888 49.08 36.0596 48.8625 36.0886 48.7911C36.1047 48.7586 36.1047 48.7164 36.1401 48.6807C36.1852 48.6677 36.1852 48.6807 36.1884 48.6677L36.1337 48.6904H36.1304Z" fill="#6F413D"/>
<path d="M59.4501 53.2966C60.5573 56.0364 60.8856 60.172 57.9888 61.9022L57.9502 61.8568C59.3117 60.0422 60.0552 57.8477 59.8009 55.5689C59.7398 54.8126 59.6046 54.053 59.3921 53.3194L59.4469 53.2966H59.4501Z" fill="#6F413D"/>
<path d="M38.2001 54.1375C40.215 60.1493 40.4339 68.466 34.6402 72.4198L34.6016 72.3744C34.8719 72.0595 35.1809 71.7966 35.4288 71.4687L35.8247 71.0077L36.1852 70.5208C39.7451 65.5152 39.5294 59.7663 38.2001 54.1407V54.1375Z" fill="#6F413D"/>
<path d="M58.0306 28.957C58.4362 29.9925 58.4619 31.1189 58.8289 32.1674C59.817 35.3292 61.9703 37.9456 64.3071 40.2147C64.3425 40.2504 64.3458 40.2471 64.3586 40.3023C64.703 41.5099 64.9219 42.7239 65.0893 43.9542C65.733 48.8689 65.3918 53.9459 63.8372 58.6658C63.0937 61.0193 62.0347 63.5416 59.7366 64.7362C58.6261 65.3335 57.374 65.6289 56.1123 65.5412L56.1541 65.2588C59.7591 65.6711 63.2804 63.8402 66.0549 61.6588C70.6866 57.6952 72.7466 51.3912 72.9623 45.415C73.1232 40.562 72.8496 35.67 71.8776 30.9112C70.8733 26.227 69.367 21.4356 66.4959 17.5662C63.8887 13.7812 60.5573 10.3078 56.2764 8.5224C52.0438 6.71429 46.9808 6.90581 42.9059 9.07749L42.8737 9.02555C46.9486 6.67533 52.076 6.36695 56.4341 8.12312C60.8309 9.88254 64.3136 13.3754 66.9819 17.2254C68.4207 19.0724 69.5665 21.4421 70.4517 23.7112C73.0814 30.5995 73.7509 38.1176 73.4161 45.4345C73.0653 52.0599 70.397 59.156 64.6902 62.8826C62.1699 64.5511 59.1701 65.8528 56.0962 65.5412L56.138 65.2588C58.5295 65.3854 60.8792 64.0058 62.0186 61.8893C62.6012 60.8408 62.981 59.6559 63.3608 58.5133C65.1794 52.7026 65.3983 46.3369 63.966 40.4192C61.951 38.5396 59.4662 35.3195 58.6551 32.2161C58.3171 31.1644 58.3235 30.0152 57.9727 28.9829L58.0242 28.957H58.0306Z" fill="#6F413D"/>
<path d="M63.261 63.8142C63.7181 66.4079 64.9187 68.9853 66.8757 70.7772C68.8809 72.6438 71.678 73.3417 74.3624 73.1469C73.0106 73.306 71.6265 73.267 70.2843 72.9554C67.5484 72.3159 65.276 70.3422 63.9209 67.8979C63.2224 66.6546 62.701 65.3659 62.3888 63.957L63.261 63.8142Z" fill="#6F413D"/>
<path d="M70.5418 50.3524C69.8305 55.9618 66.9948 62.4996 61.4103 64.6226L61.3845 64.5706C65.0313 62.1944 67.8445 58.6788 69.3219 54.5627C69.8337 53.1993 70.2457 51.7872 70.4839 50.3459L70.5418 50.3524Z" fill="#6F413D"/>
<path d="M29.8733 29.4408C28.7531 31.6384 28.0804 34.0763 27.4753 36.4622C26.0076 42.4481 25.808 48.8593 27.7489 54.7576C28.1384 55.9197 28.6534 57.0818 29.1973 58.1758L29.1458 58.2083C28.4474 57.176 27.8455 56.069 27.3626 54.9069C24.9615 49.0346 25.631 42.393 27.1888 36.3908C27.6813 34.5827 28.2832 32.8071 29.0074 31.0801C29.2714 30.5055 29.4806 29.918 29.8411 29.3921L29.8733 29.4408Z" fill="#6F413D"/>
<path d="M89.7962 87.9853C89.3263 85.2974 87.5881 83.0641 85.216 82.0318C82.7053 80.9411 78.7946 79.4608 73.7315 78.2273L69.6856 80.7171L48.7929 89.446L23.5806 78.289L24.3467 78.9187L23.2234 78.2273C18.1603 79.4608 14.2496 80.9378 11.739 82.0318C9.36677 83.0641 7.62866 85.2974 7.15873 87.9853C6.51821 91.6404 6.30899 95.9935 6.30899 95.9935H90.6427C90.6427 95.9935 90.4335 91.6437 89.793 87.9853H89.7962Z" fill="#C3E4EF"/>
<path d="M6.35083 95.9383C5.79077 93.5686 5.90343 91.0074 6.66949 88.6929C7.56107 86.4043 8.95478 84.356 10.7412 82.6777C12.5437 80.9702 15.0156 80.3697 17.3138 79.6848C19.6087 79.055 21.923 78.4934 24.2952 78.1201L24.321 78.2143C21.0443 79.6653 17.6228 80.717 14.1852 81.6454C10.4354 82.8173 8.22735 84.9955 7.43554 88.9266C6.85295 91.1892 6.55683 93.5199 6.44417 95.9253L6.34761 95.9383H6.35083Z" fill="#6F413D"/>
<path d="M23.8478 78.5486C27.0794 79.7821 33.5555 82.3044 36.7678 83.5801C41.1002 85.2162 45.3746 86.9691 49.4302 89.2414L49.3948 89.3323C44.9337 88.0436 40.6817 86.2355 36.4749 84.3008C33.3141 82.9114 26.9571 80.071 23.8124 78.6395L23.8478 78.5486Z" fill="#6F413D"/>
<path d="M90.559 95.9871C90.4464 93.5817 90.147 91.2509 89.5677 88.9884C89.2876 87.8619 88.9754 86.6998 88.3542 85.687C87.1665 83.6257 85.0035 82.3954 82.818 81.7072C79.3804 80.7788 75.9621 79.7271 72.6823 78.276L72.708 78.1819C75.077 78.5519 77.3945 79.1168 79.6894 79.7465C81.9876 80.4347 84.4596 81.032 86.262 82.7395C87.1794 83.5575 87.9358 84.5151 88.6149 85.5182C89.838 87.2582 90.7393 89.2967 90.9163 91.4522C91.0579 92.9714 91.029 94.5198 90.6524 96.0001L90.5558 95.9871H90.559Z" fill="#6F413D"/>
<path d="M73.5191 78.6753C70.5482 80.1069 64.5646 82.944 61.5744 84.3334C57.6058 86.2681 53.592 88.0762 49.3594 89.3649L49.3208 89.2773C53.1285 87.0114 57.1648 85.2553 61.2654 83.6192C64.2975 82.3435 70.4291 79.8179 73.4805 78.5876L73.5191 78.6753Z" fill="#6F413D"/>
</g>
</svg>
