<svg width="96" height="96" viewBox="0 0 96 96" fill="none" xmlns="http://www.w3.org/2000/svg">
<circle cx="48" cy="48" r="48" fill="#FFFCF3"/>
<mask id="mask0_74_582" style="mask-type:alpha" maskUnits="userSpaceOnUse" x="0" y="0" width="96" height="96">
<circle cx="48" cy="48" r="48" fill="#F0F9FB"/>
</mask>
<g mask="url(#mask0_74_582)">
<path d="M61.665 46.7876C61.8871 47.3451 74.4015 57.7175 70.8577 68.7609C67.3138 79.8042 57.7864 81.0295 57.2328 80.5854C56.6792 80.1413 51.9155 72.2194 51.9155 72.2194L54.4615 52.366L61.6618 46.7876H61.665Z" fill="white"/>
<path d="M59.8722 45.2737C60.0942 45.8312 72.6086 56.2036 69.0648 67.247C65.521 78.2903 55.9936 79.5156 55.44 79.0715C54.8864 78.6242 50.1226 70.7055 50.1226 70.7055L52.6687 50.8521L59.8689 45.2737H59.8722Z" fill="#B7926E"/>
<path d="M31.2094 42.606C31.2094 42.606 26.7676 37.0698 28.3963 32.6647C28.3963 32.6647 26.1013 26.195 27.6173 24.3701C29.1334 22.5484 31.9497 15.7123 33.5784 13.8875C35.2071 12.0658 37.8722 11.6088 37.8722 11.6088C37.8722 11.6088 42.166 5.07739 48.98 7.05139C55.7908 9.02539 56.5408 11.236 56.5408 11.236C56.5408 11.236 57.5708 10.3932 59.7917 11.9135C62.0126 13.4337 67.346 22.1821 67.0499 24.6423C67.0499 24.6423 68.8266 31.07 68.8266 32.6582C68.8266 34.2465 67.9962 36.8558 67.9962 36.8558C67.9962 36.8558 69.5187 39.3095 66.1648 41.6336C65.3215 42.2203 63.9406 42.6871 63.9406 42.6871L31.2127 42.6028L31.2094 42.606Z" fill="white"/>
<path d="M31.4444 43.1216C31.4444 43.1216 27.1023 37.7798 28.6956 33.5304C28.6956 33.5304 26.4522 27.2875 27.936 25.5307C29.4198 23.7738 32.1686 17.1776 33.7619 15.4208C35.3552 13.664 37.9591 13.2232 37.9591 13.2232C37.9591 13.2232 42.1563 6.92194 48.8158 8.82787C55.4754 10.7338 56.206 12.8634 56.206 12.8634C56.206 12.8634 57.2135 12.0498 59.3829 13.5149C61.5555 14.98 66.7667 23.4205 66.477 25.7932C66.477 25.7932 68.2151 31.994 68.2151 33.5239C68.2151 35.0538 66.9791 36.1851 66.9791 36.1851C66.9791 36.1851 68.891 39.9418 65.6144 42.1849C64.7904 42.7488 63.4385 43.2026 63.4385 43.2026L31.4444 43.1216Z" fill="#B7926E"/>
<path d="M74.7426 80.7505C69.8019 79.441 66.345 78.0731 64.5651 77.2952C63.4482 76.8057 62.431 76.1153 61.591 75.2304C54.0849 67.3442 57.9184 52.0287 57.9184 52.0287L48.7418 51.5198H48.7289H48.7161L39.5395 52.0287C39.5395 52.0287 43.4663 67.7266 35.5837 75.5222C34.853 76.245 33.9872 76.8122 33.0505 77.2271C31.3221 77.9921 27.8072 79.4021 22.7152 80.7537C15.222 82.7407 11.2791 85.3208 11.2791 85.3208L49.3759 95.3561L86.1756 85.3208C86.1756 85.3208 82.2326 82.7407 74.7394 80.7537L74.7426 80.7505Z" fill="white"/>
<path d="M50.3673 11.9589L50.3737 11.6704C50.3737 11.6704 49.7525 11.6834 48.7322 11.7741C47.715 11.6834 47.0906 11.6704 47.0906 11.6704L47.097 11.9589C41.3227 12.7336 30.0604 15.5601 31.4122 25.8352C31.4122 25.8352 32.8188 45.1019 38.1651 52.7516C43.3183 60.129 47.6378 60.8745 47.6378 60.8745H49.8201C49.8201 60.8745 54.1364 60.129 59.2928 52.7516C64.6391 45.1019 66.0457 25.8352 66.0457 25.8352C67.4007 15.5633 56.1352 12.7336 50.3608 11.9589H50.3673Z" fill="white"/>
<path d="M32.9315 36.6226C32.9315 36.6226 28.5636 38.2303 31.5281 44.8524C33.9969 50.3627 36.5557 47.2543 36.5557 47.2543L32.9315 36.6258V36.6226Z" fill="white"/>
<path d="M64.5264 36.6226C64.5264 36.6226 68.8942 38.2303 65.9298 44.8524C63.461 50.3627 60.9021 47.2543 60.9021 47.2543L64.5264 36.6258V36.6226Z" fill="white"/>
<path d="M34.9142 33.1867C34.9142 33.1867 36.8776 31.0442 39.0084 30.7006C39.0084 30.7006 44.4609 30.0945 44.9759 31.2095C45.4909 32.3245 44.9663 32.4056 44.8633 32.4477C44.7603 32.4898 42.0887 31.0345 39.0663 31.4202C37.4634 31.6244 35.9442 32.6551 34.9142 33.19V33.1867Z" fill="#734C49"/>
<path d="M62.4407 33.1867C62.4407 33.1867 60.4773 31.0442 58.3465 30.7006C58.3465 30.7006 52.894 30.0945 52.379 31.2095C51.864 32.3245 52.3886 32.4056 52.4916 32.4477C52.5946 32.4898 55.2662 31.0345 58.2885 31.4202C59.8915 31.6244 61.4107 32.6551 62.4407 33.19V33.1867Z" fill="#734C49"/>
<path d="M46.6464 47.6789C46.9554 47.3093 47.5284 47.332 47.8406 47.6789C47.9436 47.8053 48.0079 47.9706 47.9597 48.1391C47.7891 48.0938 47.6829 48.0808 47.5831 48.0646C47.2258 48.016 46.9522 47.9155 46.6464 47.6756V47.6789Z" fill="#734C49"/>
<path d="M50.7052 47.6788C50.4027 47.9186 50.1259 48.0223 49.7686 48.0677C49.6688 48.0807 49.5626 48.0969 49.392 48.1423C49.3469 47.9737 49.4113 47.8052 49.5111 47.682C49.8233 47.3319 50.3962 47.3125 50.7052 47.682V47.6788Z" fill="#734C49"/>
<path d="M64.1595 37.8413C63.9438 41.5786 62.6499 47.9155 60.3678 50.8716C61.0599 49.0273 61.665 46.2754 62.1896 44.3565C62.7754 42.188 63.3677 39.9482 64.1595 37.8413Z" fill="#6F413D"/>
<path d="M60.3711 50.8748C58.7874 55.6331 54.5613 59.539 49.775 60.8744C50.0357 60.6994 50.2997 60.5341 50.5636 60.372C54.5001 57.9961 57.8347 54.732 60.3711 50.8748Z" fill="#6F413D"/>
<path d="M33.1793 37.8413C33.9679 39.9482 34.5633 42.188 35.1492 44.3565C35.6738 46.2851 36.2757 49.0176 36.971 50.8716C34.6921 47.9187 33.3949 41.5851 33.1793 37.8413Z" fill="#6F413D"/>
<path d="M36.9677 50.8748C39.5009 54.7352 42.8355 57.9993 46.7752 60.372C47.0391 60.5341 47.303 60.6994 47.5638 60.8744C42.7775 59.539 38.5513 55.6331 36.9677 50.8748Z" fill="#6F413D"/>
<path d="M40.1736 56.3462C40.5051 59.2667 40.5888 62.2163 40.3699 65.1498C40.2347 66.8709 39.9966 68.6667 39.2015 70.229C37.6244 72.9906 35.7961 75.7296 33.0184 77.4119C31.3221 78.4362 29.4134 78.9418 27.5626 79.5642C25.7151 80.1541 23.8708 80.744 22.0232 81.308C19.2551 82.1605 16.4677 82.9481 13.764 83.9789C12.8981 84.3484 11.9422 84.6596 11.2695 85.337L11.1954 85.2852C13.5837 82.3193 26.0209 79.1817 30.1151 77.9629C34.5183 76.8771 36.971 74.0473 38.7123 69.9729C39.5878 67.49 39.5846 64.8094 39.8099 62.1807C39.9193 60.2423 39.9998 58.2975 40.0931 56.3462H40.18H40.1736Z" fill="#6F413D"/>
<path d="M57.3744 56.3496C57.4645 58.3009 57.5482 60.249 57.6577 62.1841C57.883 64.8096 57.8798 67.4935 58.7553 69.9763C60.4998 74.054 62.946 76.8805 67.3525 77.9663C71.4435 79.1851 83.8838 82.3227 86.2721 85.2886L86.1981 85.3405C85.5221 84.663 84.5662 84.3486 83.7036 83.9823C80.9998 82.9516 78.2092 82.1639 75.4443 81.3114C73.5936 80.7474 71.7492 80.1575 69.9049 79.5676C68.0541 78.9452 66.1454 78.4396 64.4492 77.4153C61.8806 75.8659 60.1329 73.396 58.6297 70.871C58.4076 70.4982 58.1051 69.9375 57.9409 69.5323C57.088 67.1888 57.0236 64.667 56.9785 62.21C56.9689 60.249 57.0654 58.2944 57.294 56.3496H57.3809H57.3744Z" fill="#6F413D"/>
<path d="M32.101 37.1412C29.8865 39.2611 30.659 42.7423 32.0849 45.0891C32.6064 46.0355 33.1503 47.0404 34.0773 47.6368C34.5151 47.8993 35.0494 48.0128 35.632 47.8637L35.6706 47.9447C35.4807 48.0744 35.2747 48.204 35.0429 48.2591L34.9271 48.2948L34.8047 48.311C34.6535 48.3272 34.4571 48.3434 34.3091 48.3175C32.5001 48.029 31.5249 46.2203 30.9584 44.6417C29.938 42.2172 29.7256 38.7943 32.0527 37.0667L32.1042 37.1412H32.101Z" fill="#6F413D"/>
<path d="M65.3214 36.9727C67.6486 38.7036 67.4329 42.1232 66.4158 44.5477C65.8493 46.1231 64.874 47.935 63.0651 48.2235C62.9171 48.2494 62.7175 48.2364 62.5694 48.217C62.4954 48.2105 62.4149 48.1943 62.3313 48.1651C62.0995 48.1068 61.8935 47.9804 61.7036 47.8507L61.7422 47.7697C62.3248 47.9155 62.8591 47.8053 63.2969 47.5428C64.4524 46.7713 65.0543 45.4262 65.6948 44.2366C66.8439 42.0162 67.2527 38.924 65.2732 37.0472L65.3247 36.9727H65.3214Z" fill="#6F413D"/>
<path d="M44.4931 51.0823C44.4931 51.0823 48.0562 49.5945 48.5616 50.3432V53.2281C48.5616 53.2281 44.3933 53.4906 44.4931 51.0823Z" fill="#F4A474"/>
<path d="M52.3597 51.0823C52.3597 51.0823 48.7965 49.5945 48.2912 50.3432V53.2281C48.2912 53.2281 52.4562 53.4679 52.3597 51.0823Z" fill="#F4A474"/>
<path d="M43.7367 50.6446C44.1905 50.6835 44.5704 50.8067 44.9244 50.9914C45.2398 51.228 45.6197 51.5003 46.0317 51.3577C46.8138 51.1211 47.7311 50.7807 48.5004 51.2443L48.4908 51.3026C48.0659 51.4387 47.7247 51.5749 47.3159 51.6721C46.6786 51.8309 46.0123 51.6592 45.3943 51.5165C44.963 51.5036 44.5092 51.4647 44.1616 51.1729C43.991 51.0433 43.8236 50.8974 43.7045 50.6932L43.7367 50.6414V50.6446Z" fill="#734C49"/>
<path d="M44.9115 50.9299C44.9115 50.9299 44.2485 50.7159 44.1197 50.6867C43.8461 50.6284 43.0221 50.7418 43.3794 51.3253C43.7303 51.899 44.9115 50.9299 44.9115 50.9299Z" fill="#734C49"/>
<path d="M52.4433 50.8877C52.4433 50.8877 53.1096 50.6835 53.2384 50.6576C53.512 50.6057 54.3327 50.7321 53.969 51.3091C53.6117 51.8763 52.4433 50.8877 52.4433 50.8877Z" fill="#734C49"/>
<path d="M53.5731 50.6705C53.1837 51.2799 52.5689 51.5068 51.8833 51.4938C51.4713 51.5554 51.0175 51.7434 50.5926 51.711C49.9392 51.7207 49.4113 51.4809 48.7869 51.2799L48.7772 51.2215C49.157 50.972 49.6463 50.972 50.0679 51.0206C50.6537 51.066 51.2621 51.5165 51.8318 51.2993C52.379 50.959 52.8296 50.6543 53.5409 50.6187L53.5731 50.6705Z" fill="#734C49"/>
<path d="M46.0542 53.6267C46.978 53.8601 47.847 54.1 48.7869 54.0902C49.7235 54.1162 50.5926 53.8795 51.5099 53.6267C50.0518 55.0529 47.5284 55.0011 46.0542 53.6267Z" fill="#734C49"/>
<path d="M42.0791 36.6969C42.0791 36.6969 42.4267 36.1621 42.446 36.0487C42.4685 35.932 42.6037 36.5641 42.4685 36.778C42.3333 36.9919 42.0791 36.7002 42.0791 36.7002V36.6969Z" fill="#734C49"/>
<path d="M36.6941 38.389C36.6941 38.389 37.7467 35.9871 41.1617 36.3404C43.653 36.5965 44.712 39.8411 44.712 39.8411C44.712 39.8411 42.2142 35.6792 39.2562 37.2999C39.2562 37.2999 38.5739 37.6759 38.0299 38.0843C37.3282 38.6126 36.6941 38.389 36.6941 38.389Z" fill="#734C49"/>
<path d="M37.3636 38.0098C37.3636 38.0098 36.5139 39.0665 35.6127 38.9433C35.6127 38.9433 37.0353 39.7601 37.6952 38.3274L37.3669 38.0098H37.3636Z" fill="#734C49"/>
<path d="M37.4602 37.4555C37.4602 37.4555 36.3336 37.8898 35.8444 37.0859C35.8798 37.0989 36.3079 38.1167 37.457 37.8379L37.4634 37.4555H37.4602Z" fill="#734C49"/>
<path d="M38.7606 36.7326C38.7606 36.7326 37.2735 37.3063 36.6265 36.2432C36.6748 36.2594 37.2349 37.6045 38.7509 37.235L38.7606 36.7326Z" fill="#734C49"/>
<path d="M40.5824 36.3988C40.5824 36.3988 39.459 35.9514 39.6393 35.0244C39.6586 35.0601 39.2852 36.0973 40.3216 36.6775L40.5824 36.402V36.3988Z" fill="#734C49"/>
<path d="M40.8946 36.3405C40.8946 36.3405 41.1006 35.7376 41.0909 35.6177C41.0845 35.501 41.3677 36.078 41.2905 36.3178C41.2132 36.5577 40.8914 36.3373 40.8914 36.3373L40.8946 36.3405Z" fill="#734C49"/>
<path d="M37.0128 38.2949C36.81 38.4376 36.5783 38.4473 36.3562 38.3857C36.1534 38.3274 35.9828 38.2074 35.8283 38.0713C35.9152 38.1232 36.0053 38.1685 36.0955 38.2074C36.3369 38.3047 36.6716 38.3241 36.8615 38.1329L37.0128 38.2949Z" fill="#734C49"/>
<path d="M39.4912 36.684C38.9279 36.7034 38.5771 36.1783 38.4483 35.6921C38.6189 36.0876 38.9827 36.5414 39.4526 36.4668L39.4912 36.6872V36.684Z" fill="#734C49"/>
<path d="M42.784 39.021C42.652 40.0745 41.696 40.8168 40.6532 40.6839C39.6103 40.551 38.87 39.5883 39.002 38.5381C39.1339 37.4846 40.0899 36.7424 41.1328 36.8753C42.1788 37.0082 42.9159 37.9708 42.784 39.021Z" fill="#734C49"/>
<path d="M36.369 38.0032C36.6426 37.4586 37.045 36.9854 37.5117 36.5867C37.9655 36.1718 38.5385 35.8704 39.1629 35.8347L39.1726 35.8639C38.6672 36.201 38.1619 36.4506 37.6565 36.7747C37.1737 37.1118 36.7328 37.5267 36.3948 38.0162L36.369 38.0032Z" fill="#734C49"/>
<path d="M40.0835 35.6986C41.5061 35.5495 43.5371 35.9191 43.9073 37.5657L43.8815 37.5786C43.4406 36.9628 42.9224 36.5025 42.2529 36.1654C41.5415 35.8251 40.7916 35.7894 40.0835 35.6986Z" fill="#734C49"/>
<path d="M42.578 39.5784C42.578 39.8831 42.3333 40.1327 42.0276 40.1327C41.7218 40.1327 41.4772 39.8864 41.4772 39.5784C41.4772 39.2705 41.7218 39.0242 42.0276 39.0242C42.3333 39.0242 42.578 39.2705 42.578 39.5784Z" fill="white"/>
<path d="M36.8905 40.3501C36.8905 40.1588 36.9098 39.9708 36.9581 39.7861C36.9806 39.6953 36.9613 39.5754 37.0514 39.5203C37.1351 39.4684 37.2574 39.4004 37.4441 39.4619C37.5246 39.5948 37.5535 39.7731 37.5407 39.8509C37.5342 39.9384 37.428 39.9676 37.3636 40.0259C37.2993 40.0843 37.2349 40.1459 37.1641 40.2042C37.09 40.2593 37.0224 40.3209 36.942 40.3792L36.8905 40.3533V40.3501Z" fill="#734C49"/>
<path d="M37.7692 40.7194C37.7531 40.5865 37.7595 40.4633 37.7756 40.3402C37.7853 40.2786 37.7628 40.1975 37.8239 40.1586C37.8786 40.123 37.9655 40.0776 38.1007 40.1197C38.1651 40.2105 38.2069 40.3369 38.2037 40.3888C38.2037 40.4471 38.1329 40.4666 38.0911 40.5055C38.0042 40.5833 37.9173 40.6643 37.8078 40.7388L37.766 40.7226L37.7692 40.7194Z" fill="#734C49"/>
<path d="M38.4387 40.9075C38.4226 40.8264 38.3936 40.5995 38.4483 40.5542C38.4837 40.5315 38.5385 40.5055 38.6254 40.5347C38.6769 40.5866 38.7026 40.6773 38.7026 40.7033C38.7091 40.7389 38.6608 40.7454 38.635 40.7681C38.5835 40.8005 38.4902 40.9302 38.4387 40.9042V40.9075Z" fill="#734C49"/>
<path d="M39.2691 40.7324C39.4236 40.9237 39.2852 41.1376 39.0696 41.089C39.0052 40.8945 39.0245 40.7713 39.2691 40.7324Z" fill="#734C49"/>
<path d="M39.7519 40.9333C39.7938 40.969 39.8968 41.0889 39.8742 41.144C39.8581 41.17 39.826 41.1927 39.7648 41.1991C39.7133 41.1862 39.665 41.1343 39.6554 41.1213C39.6425 41.1051 39.6682 41.0889 39.6779 41.0727C39.7036 41.0273 39.7197 40.9722 39.7519 40.9366V40.9333Z" fill="#734C49"/>
<path d="M55.3788 36.697C55.3788 36.697 55.0312 36.1622 55.0119 36.0487C54.9926 35.9353 54.8542 36.5641 54.9894 36.778C55.1245 36.992 55.3788 36.7002 55.3788 36.7002V36.697Z" fill="#734C49"/>
<path d="M60.7637 38.389C60.7637 38.389 59.7112 35.9871 56.2962 36.3404C53.8049 36.5965 52.7459 39.8411 52.7459 39.8411C52.7459 39.8411 55.2436 35.6792 58.2016 37.2999C58.2016 37.2999 58.884 37.6759 59.428 38.0843C60.1297 38.6126 60.7637 38.389 60.7637 38.389Z" fill="#734C49"/>
<path d="M60.091 38.0098C60.091 38.0098 60.9408 39.0665 61.842 38.9433C61.842 38.9433 60.4193 39.7601 59.7595 38.3274L60.0878 38.0098H60.091Z" fill="#734C49"/>
<path d="M59.9945 37.4555C59.9945 37.4555 61.121 37.8898 61.6103 37.0859C61.5749 37.0989 61.1468 38.1167 59.9977 37.8379L59.9912 37.4555H59.9945Z" fill="#734C49"/>
<path d="M58.6941 36.7326C58.6941 36.7326 60.1812 37.3063 60.8281 36.2432C60.7798 36.2594 60.2198 37.6045 58.7005 37.235L58.6909 36.7326H58.6941Z" fill="#734C49"/>
<path d="M56.8723 36.3988C56.8723 36.3988 57.9956 35.9514 57.8154 35.0244C57.7961 35.0601 58.1694 36.0973 57.133 36.6775L56.8723 36.402V36.3988Z" fill="#734C49"/>
<path d="M56.5633 36.3405C56.5633 36.3405 56.3573 35.7376 56.367 35.6177C56.3766 35.4978 56.0902 36.078 56.1674 36.3178C56.2447 36.5577 56.5665 36.3373 56.5665 36.3373L56.5633 36.3405Z" fill="#734C49"/>
<path d="M60.5931 38.1328C60.8732 38.4018 61.3302 38.2592 61.6264 38.0745C61.3174 38.3629 60.8345 38.5704 60.4419 38.2949L60.5931 38.1328Z" fill="#734C49"/>
<path d="M57.9989 36.4637C58.4688 36.5382 58.8325 36.0844 59.0031 35.689C58.8743 36.1752 58.5267 36.7003 57.9602 36.6808L57.9989 36.4604V36.4637Z" fill="#734C49"/>
<path d="M54.6707 39.021C54.8027 40.0745 55.7586 40.8168 56.8015 40.6839C57.8476 40.551 58.5847 39.5883 58.4527 38.5381C58.3207 37.4846 57.3648 36.7424 56.3219 36.8753C55.2758 37.0082 54.5387 37.9708 54.6707 39.021Z" fill="#734C49"/>
<path d="M61.0599 38.0162C60.3904 36.9886 59.2831 36.4927 58.2821 35.8639L58.2918 35.8347C58.9162 35.8704 59.4891 36.1718 59.943 36.5867C60.4129 36.9822 60.8152 37.4586 61.0856 38.0032L61.0599 38.0162Z" fill="#734C49"/>
<path d="M57.368 35.7278C55.8842 35.7051 54.4164 36.3113 53.5731 37.5754L53.5474 37.5625C53.8853 35.9483 56.0387 35.4783 57.368 35.7246V35.7278Z" fill="#734C49"/>
<path d="M57.6899 40.1037C57.9938 40.1037 58.2403 39.8555 58.2403 39.5494C58.2403 39.2433 57.9938 38.9951 57.6899 38.9951C57.3859 38.9951 57.1395 39.2433 57.1395 39.5494C57.1395 39.8555 57.3859 40.1037 57.6899 40.1037Z" fill="white"/>
<path d="M60.5127 40.3758C60.3646 40.2656 60.223 40.1489 60.091 40.0225C60.0267 39.9642 59.9204 39.935 59.914 39.8475C59.9011 39.7697 59.9301 39.5914 60.0106 39.4585C60.1972 39.3969 60.3196 39.465 60.4032 39.5169C60.4934 39.5752 60.4741 39.6951 60.4966 39.7827C60.5449 39.9674 60.5642 40.1554 60.5642 40.3467L60.5127 40.3726V40.3758Z" fill="#734C49"/>
<path d="M59.6436 40.7357C59.5374 40.6612 59.4473 40.5801 59.3604 40.5023C59.3185 40.4634 59.2445 40.444 59.2477 40.3857C59.2445 40.3338 59.2863 40.2106 59.3507 40.1166C59.4859 40.0712 59.5728 40.1166 59.6275 40.1555C59.6887 40.1944 59.6662 40.2754 59.6758 40.337C59.6919 40.4602 59.6983 40.5834 59.6823 40.7163L59.6404 40.7325L59.6436 40.7357Z" fill="#734C49"/>
<path d="M58.9902 40.9173C58.9033 40.8363 58.7424 40.7293 58.7553 40.7067C58.7553 40.6807 58.7842 40.59 58.8325 40.5381C58.9194 40.5089 58.9709 40.5316 59.0095 40.5575C59.0482 40.5835 59.0321 40.6353 59.0353 40.6742C59.0353 40.7326 59.0514 40.9109 58.9902 40.9206V40.9173Z" fill="#734C49"/>
<path d="M58.1855 40.7324C58.4302 40.7713 58.4527 40.8945 58.3851 41.089C58.1694 41.1376 58.0278 40.9237 58.1855 40.7324Z" fill="#734C49"/>
<path d="M57.7156 40.9496C57.7414 40.9788 57.7542 41.0339 57.7768 41.0696C57.7864 41.089 57.8122 41.102 57.7993 41.1182C57.7896 41.1311 57.7414 41.183 57.6899 41.196C57.6255 41.1895 57.5965 41.1668 57.5804 41.1409C57.5579 41.089 57.6577 40.9691 57.7027 40.9302L57.7156 40.9496Z" fill="#734C49"/>
<path d="M89.7934 88.3224C89.3235 85.6386 87.5853 83.4085 85.2132 82.3777C82.7025 81.2886 78.7918 79.8106 73.7287 78.5789L69.6828 81.065L48.7901 89.781L23.5778 78.6404L24.3439 79.2693L23.2206 78.5789C18.1575 79.8106 14.2468 81.2854 11.7362 82.3777C9.36397 83.4085 7.62586 85.6386 7.15593 88.3224C6.51541 91.9722 6.30619 96.3189 6.30619 96.3189H90.6399C90.6399 96.3189 90.4307 91.9755 89.7902 88.3224H89.7934Z" fill="#D4E7BA"/>
<path d="M6.34803 96.2606C5.78797 93.8944 5.90063 91.3369 6.66669 89.0258C7.55827 86.7407 8.95198 84.6954 10.7384 83.0228C12.5409 81.3179 15.0128 80.7182 17.311 80.0343C19.6059 79.4054 21.9202 78.8447 24.2924 78.4719L24.3182 78.5659C21.0415 80.0148 17.62 81.065 14.1824 81.9921C10.4326 83.1622 8.22455 85.3372 7.43274 89.2625C6.85015 91.5217 6.55403 93.849 6.44137 96.2509L6.34481 96.2638L6.34803 96.2606Z" fill="#6F413D"/>
<path d="M23.845 78.8999C27.0766 80.1316 33.5527 82.6502 36.765 83.924C41.0974 85.5577 45.3718 87.308 49.4274 89.577L49.392 89.6677C44.9309 88.3809 40.6789 86.5755 36.472 84.6436C33.308 83.2563 26.9543 80.4201 23.8096 78.9907L23.845 78.8999Z" fill="#6F413D"/>
<path d="M90.5562 96.3124C90.4436 93.9105 90.1442 91.5832 89.5649 89.324C89.2848 88.1992 88.9726 87.0388 88.3514 86.0275C87.1637 83.9692 85.0007 82.7408 82.8152 82.0536C79.3776 81.1265 75.9593 80.0763 72.6795 78.6274L72.7052 78.5334C75.0742 78.903 77.3917 79.467 79.6866 80.0958C81.9848 80.783 84.4568 81.3794 86.2592 83.0843C87.1766 83.9012 87.933 84.8574 88.6121 85.859C89.8352 87.5963 90.7365 89.6319 90.9135 91.7842C91.0551 93.3011 91.0262 94.8473 90.6496 96.3254L90.553 96.3124H90.5562Z" fill="#6F413D"/>
<path d="M73.5163 79.0262C70.5454 80.4557 64.5618 83.2886 61.5716 84.676C57.603 86.6078 53.5892 88.4133 49.3566 89.7001L49.318 89.6126C53.1257 87.3501 57.162 85.5965 61.2626 83.9629C64.2947 82.689 70.4263 80.1672 73.4777 78.9387L73.5163 79.0262Z" fill="#6F413D"/>
<path d="M43.5178 20.2051C43.5178 20.2051 39.5459 20.0528 37.3411 26.743C35.1363 33.4299 32.9508 40.0585 30.2309 38.5934C30.2309 38.5934 34.1063 24.5421 34.3992 23.8192C34.6921 23.0932 43.5178 17.0221 43.5178 17.0221L47.4897 14.4517L55.7264 17.0221L66.4641 27.1125L67.198 40.0488C67.198 40.0488 65.1863 40.3632 63.8151 37.527C62.4439 34.6908 62.0512 29.8871 60.0878 28.0622C58.1276 26.2373 56.1642 25.226 56.4603 23.8063C56.7532 22.3865 55.9711 22.5908 54.9894 21.6767C54.0076 20.7659 53.0292 18.8405 51.4584 19.1419C49.8909 19.4466 50.3801 20.4579 49.2536 20.3574C48.127 20.257 47.1453 18.9377 46.7526 19.3429C46.36 19.7481 45.5746 20.7626 45.2817 20.7626C44.9888 20.7626 43.5178 20.2051 43.5178 20.2051Z" fill="#B7926E"/>
<path d="M30.2277 32.1137L31.3092 19.6214L37.0675 12.3251C37.6083 11.6412 38.4065 11.2133 39.2723 11.1485L49.775 10.3608L57.6899 12.1468C58.3143 12.3284 59.9108 13.5244 60.3389 14.0204L64.3333 18.6426C64.7035 19.0704 64.9996 19.5599 65.2056 20.0882L66.3032 22.8888C66.9855 24.6294 66.9984 26.5612 66.3386 28.3083L66.1648 28.7686L57.6931 20.7365L52.4466 17.3914L46.1057 15.3493L41.1006 19.5112L35.8444 28.3245L32.6482 35.6079L30.2245 32.1169L30.2277 32.1137Z" fill="#B7926E"/>
<path d="M57.6899 25.9683C60.2133 26.3281 62.283 30.8336 63.1166 33.0085C64.2689 35.634 64.5168 39.018 67.4362 40.3081L67.4072 40.4021C66.654 40.3016 65.8912 40.0002 65.2667 39.488C63.4385 37.9613 62.9686 35.4039 62.3119 33.2938C61.8774 31.8676 61.3109 30.4997 60.606 29.1934C60.0749 28.2275 59.4859 27.2681 58.6362 26.5549C58.3561 26.3345 58.0343 26.1141 57.6899 26.0655V25.9683Z" fill="#6F413D"/>
<path d="M57.059 23.3881C59.325 21.8776 61.9321 23.9391 63.3452 25.7251C64.9835 27.5954 65.4534 30.2501 65.801 32.5774C65.9491 33.3488 66.1487 34.0976 66.5188 34.7783C66.889 35.4557 67.4104 36.0586 68.0123 36.5967L67.9769 36.6485C65.4824 35.3812 65.0736 32.8172 64.7839 30.3052C64.4942 27.9228 63.2454 25.7575 61.43 24.2211C60.2745 23.213 58.5042 22.5194 57.1008 23.4335L57.0622 23.3816L57.059 23.3881Z" fill="#6F413D"/>
<path d="M53.1386 20.5163C56.5633 19.3072 60.9633 20.4741 62.8141 23.7609L62.7658 23.803C62.2089 23.4011 61.7261 22.9668 61.1693 22.5843C60.8828 22.3541 60.3936 22.0689 60.0878 21.8517C58.8003 21.0154 57.3519 20.4579 55.8037 20.3769C54.925 20.3056 54.027 20.3672 53.1611 20.5811L53.1386 20.5195V20.5163Z" fill="#6F413D"/>
<path d="M61.1049 19.2617C64.1048 20.5907 66.4577 23.1676 67.7838 26.1626C68.7397 28.4251 69.3481 30.908 69.1163 33.3811C69.023 34.198 68.8202 35.0634 68.2827 35.7117L68.228 35.676C68.8588 34.1947 68.5917 32.5416 68.405 30.989C68.1056 29.0247 67.7323 27.0281 67.0338 25.161C66.5413 24.0525 65.6304 23.2097 64.7163 22.4512L62.9074 20.8856C62.2991 20.3638 61.6811 19.8549 61.0663 19.3201L61.0985 19.265L61.1049 19.2617Z" fill="#6F413D"/>
<path d="M53.5506 17.2941C55.0248 15.2812 57.8765 14.7594 60.12 15.7707C62.3538 16.6847 64.0662 18.5161 65.5146 20.3767C66.0424 21.0249 66.5317 21.751 67.0435 22.3831C66.9823 22.3507 66.9115 22.4155 66.9179 22.4609L66.9115 22.4349C65.962 20.3994 64.6455 18.5453 63.49 16.6232C61.9772 14.0852 57.9924 8.64289 55.1567 12.5098C54.7125 13.129 54.3553 13.8323 54.0978 14.5681L54.0366 14.5519C54.5162 11.975 56.4024 9.55696 59.2059 11.0123C62.7175 12.8729 64.3751 17.1612 66.2002 20.4934L66.728 21.55L66.9855 22.0849C67.0338 22.208 67.1239 22.3442 67.1143 22.49C67.0789 22.6002 66.9566 22.5938 66.8857 22.4998C66.3708 21.8353 65.8815 21.1643 65.3247 20.5387C63.4063 18.448 60.6768 15.9457 57.7381 15.748C56.2479 15.641 54.7093 16.2309 53.6085 17.333L53.557 17.2941H53.5506Z" fill="#6F413D"/>
<path d="M47.4254 17.8679C46.669 15.7286 45.301 13.6217 43.2346 12.6104C40.1285 11.0772 36.0794 12.0918 33.6718 14.5001C31.9787 16.1694 31.3446 18.4449 30.6172 20.6652C30.2149 21.8127 29.7031 23.0217 28.6892 23.7867C27.0315 24.7656 26.8545 27.0118 27.421 28.7071L27.3598 28.7298C26.7386 27.404 26.5487 25.7574 27.318 24.4447C27.5272 24.0492 28.0487 23.4982 28.3351 23.3296C29.1688 22.6295 29.5904 21.5339 29.9638 20.4383C30.6977 18.2115 31.5056 15.7481 33.3789 14.1857C35.7189 12.1955 40.6178 10.5975 43.4824 12.0885C45.6872 13.1744 47.0713 15.4952 47.4833 17.8549L47.4189 17.8679H47.4254Z" fill="#6F413D"/>
<path d="M27.5079 28.1918C31.5571 28.3182 33.8681 21.7447 35.471 18.6881C36.2049 17.2003 36.8969 15.6379 38.0363 14.3835C38.4644 13.9427 38.9601 13.6218 39.5491 13.4565C41.7765 12.7207 44.1777 13.8487 45.6325 15.5277L45.5875 15.5731C45.1723 15.223 44.7216 14.9151 44.2485 14.659C42.8998 13.8843 41.2358 13.5181 39.7487 14.0723C39.5395 14.1404 39.2562 14.2539 39.076 14.3673L38.7863 14.5877C37.5342 15.787 36.7617 17.3947 35.9313 18.9214C34.3348 21.8354 31.4476 28.8271 27.5111 28.1918H27.5079Z" fill="#6F413D"/>
<path d="M43.521 20.2375C40.8399 21.1743 38.7734 23.2714 37.7692 25.8969C36.8454 28.6035 36.3208 31.4365 35.2167 34.0879C34.5955 35.4784 33.4722 38.3146 31.8467 38.6226L31.8339 38.5578C32.2748 38.4022 32.5677 38.0262 32.8252 37.6502C33.5816 36.4703 34.0612 35.1381 34.5762 33.8286C35.5611 31.1609 36.6748 28.5289 37.5696 25.8256C38.0718 23.9424 39.0599 22.111 40.7884 21.1127C41.6188 20.6038 42.5458 20.2343 43.5114 20.1694L43.521 20.2343V20.2375Z" fill="#6F413D"/>
<path d="M34.5633 25.2031C34.2962 25.9 33.7104 26.4089 33.2662 26.9956C31.8693 28.6681 30.4112 30.3439 29.2879 32.2077C27.6302 34.71 28.5958 37.8153 30.2181 40.1102L30.1698 40.1555C28.4928 38.671 27.3727 36.2853 27.8845 34.0099C28.0583 33.2449 28.4413 32.5383 28.8533 31.9322C29.6773 30.6875 30.6333 29.5627 31.6182 28.4704C32.3585 27.6568 33.131 26.8756 33.8713 26.0588C34.0934 25.7898 34.3863 25.5207 34.5022 25.1934L34.5666 25.1998L34.5633 25.2031Z" fill="#6F413D"/>
<path d="M34.9142 28.2307C34.6277 31.4202 32.8832 35.9776 29.4488 36.7717C32.5001 35.0214 33.646 31.323 34.9142 28.2307Z" fill="#6F413D"/>
<path d="M37.8883 11.2361C40.5984 6.89914 46.0767 5.47941 50.7439 7.22976C52.2663 7.78727 53.6826 8.59113 54.9475 9.57975L54.9153 9.63486C53.4701 8.95417 52.0346 8.29941 50.5379 7.84562C49.0508 7.39183 47.5284 7.01583 45.9705 7.045C42.8387 7.07093 39.7745 8.6981 37.943 11.2718L37.8883 11.2393V11.2361Z" fill="#6F413D"/>
<path d="M43.3022 8.97998C47.9951 10.2992 50.7793 16.03 48.9221 20.5744L48.8609 20.5582C49.2536 15.4109 48.1624 11.2554 43.3022 8.97998Z" fill="#6F413D"/>
<path d="M50.3415 7.70612C51.3715 10.8535 52.9744 16.4578 50.7213 19.2973L50.6956 19.2778C51.6548 17.5275 51.5839 15.4692 51.4713 13.5309C51.3264 11.5698 50.7986 9.55046 50.3415 7.70288V7.70612Z" fill="#6F413D"/>
<path d="M57.4646 55.9443C56.5794 56.7255 52.1472 62.1905 53.6986 66.5404C55.2501 70.8903 56.5794 70.3328 56.5794 70.3328C56.5794 70.3328 56.4603 72.9551 52.5753 77.4833C48.7869 81.898 56.4539 89.8653 56.4539 89.8653C56.4539 89.8653 53.7373 91.7518 52.0571 91.6383C52.0571 91.6383 56.4539 92.0241 57.8379 92.1116C58.4881 92.1505 58.5847 96.4745 62.7915 96.1406C63.7926 96.0596 64.6681 95.4243 65.2957 94.6334L66.3514 93.4503C66.3514 93.4503 61.591 97.8132 61.2337 91.0808C61.2337 91.0808 69.0455 88.6109 68.7719 82.3161V81.4831C68.7784 79.9824 67.6518 78.7766 67.4007 77.2985C66.3836 71.276 63.4964 55.3771 61.3431 54.8325C58.6844 54.1648 57.4678 55.9476 57.4678 55.9476L57.4646 55.9443Z" fill="white"/>
<path d="M58.0793 55.4192C57.1942 56.2004 52.762 61.6653 54.3134 66.0152C55.8648 70.3652 57.1942 69.8076 57.1942 69.8076C57.1942 69.8076 57.0751 72.4299 53.1901 76.9581C49.4016 81.3729 57.0686 89.3402 57.0686 89.3402C57.0686 89.3402 54.352 91.2266 52.6719 91.1132C52.6719 91.1132 57.0686 91.4989 58.4527 91.5864C59.1029 91.6253 59.1994 95.9493 63.4063 95.6155C64.4073 95.5344 65.2828 94.8991 65.9105 94.1082L66.9662 92.9251C66.9662 92.9251 62.2057 97.288 61.8484 90.5557C61.8484 90.5557 69.6603 88.0857 69.3867 81.791V80.958C69.3931 79.4572 68.2666 78.2514 68.0155 76.7734C66.9984 70.7509 64.1112 54.8519 61.9579 54.3074C59.2992 53.6397 58.0825 55.4224 58.0825 55.4224L58.0793 55.4192Z" fill="#B7926E"/>
<path d="M63.9535 48.9397C69.4768 54.1389 73.3843 62.5113 70.4135 70.0151C68.4887 74.6632 65.241 79.7165 59.943 80.6954L59.8625 80.2352C61.7165 79.7587 63.7797 78.4816 62.225 76.4233C60.973 74.8772 59.3057 73.6163 57.8411 72.2614C56.4474 71.0135 54.9218 69.8044 53.8177 68.2421C52.3886 66.1806 52.8972 63.782 53.7308 61.5908C54.7608 59.0333 56.7597 56.7741 59.37 55.8438L59.3893 55.9054C56.9238 57.001 55.0763 59.244 54.1815 61.7658C53.7566 63.0073 53.4025 64.333 53.5184 65.6522C53.5602 66.4593 53.924 67.2048 54.352 67.8693C55.4464 69.3604 56.9141 70.4884 58.2918 71.7395C59.3121 72.6439 60.3228 73.5644 61.3013 74.5174C64.3623 77.1656 64.0243 79.6971 59.9558 80.6922L59.8754 80.2319C61.8484 79.9726 63.6702 79.0164 65.1573 77.6939C67.449 75.6065 69.0874 72.8254 70.1045 69.9081C71.8876 64.6863 70.4972 58.9166 67.7741 54.2782C66.6733 52.3885 65.3826 50.6025 63.9052 48.9883L63.9503 48.9397H63.9535Z" fill="#6F413D"/>
<path d="M57.0011 72.1416C58.6941 74.7444 59.5084 77.8108 59.8593 80.8739C60.1747 82.9062 60.5256 85.0682 59.6887 87.0454C58.9194 89.0519 57.1008 90.5267 55.1052 91.1685C54.1171 91.4926 53.0903 91.6839 52.0603 91.6709V91.6061C53.0517 91.4051 54.0141 91.1004 54.9218 90.692C58.3594 89.2236 60.1683 86.1703 59.8754 82.4232C59.7434 80.8998 59.2928 79.4185 58.8389 77.9696C58.266 76.0248 57.6641 74.0929 56.9496 72.174L57.0075 72.1416H57.0011Z" fill="#6F413D"/>
<path d="M56.367 67.6749C56.7339 68.6246 56.6148 69.691 56.5537 70.6893C56.3927 72.1869 56.0483 73.7622 55.0988 74.9809C54.7994 75.3893 54.3714 75.6778 54.0237 76.0409C52.6493 77.412 51.8479 79.3471 51.8221 81.2724C51.8382 84.2513 53.6311 86.7179 55.5043 88.948L55.4593 88.9966C52.7105 86.9384 50.3544 83.3145 51.4809 79.7263C52.012 78.0181 53.1837 76.6146 54.3842 75.3472C54.8735 74.8124 55.1471 74.1414 55.3692 73.4575C55.8069 72.0734 56.0998 70.6148 56.2672 69.1627C56.309 68.6797 56.3927 68.1838 56.309 67.704L56.367 67.6716V67.6749Z" fill="#6F413D"/>
<path d="M67.3332 76.7249C67.4748 77.6713 68.0831 78.4817 68.405 79.3763C68.9554 80.7247 69.1839 82.2611 68.8105 83.6971C68.0638 86.0438 66.345 87.94 64.5296 89.525C62.3184 91.4148 59.3346 92.8474 56.3798 92.2121C54.6385 91.525 52.1762 91.5639 51.6934 93.8004C51.5357 94.4325 51.5131 95.097 51.5518 95.7582L51.4874 95.7647C50.9788 92.1376 53.2512 90.7438 56.5215 91.8361C61.047 92.2964 66.8793 87.9433 68.479 83.603C68.8685 82.2449 68.7204 80.7701 68.2344 79.4411C67.9447 78.5271 67.3686 77.7005 67.2656 76.7281H67.3299L67.3332 76.7249Z" fill="#6F413D"/>
<path d="M58.4173 93.0256C59.5052 95.4339 61.7133 97.1097 64.1498 95.327C65.55 94.3027 67.3718 92.7436 66.5864 90.8053L66.6379 90.7664C67.4748 91.6966 67.1787 93.2039 66.4577 94.1212C65.0704 95.8683 62.312 97.4274 60.2842 95.8488C59.3572 95.126 58.7553 94.1082 58.3594 93.0515L58.4205 93.0288L58.4173 93.0256Z" fill="#6F413D"/>
<path d="M61.5555 93.0679C62.0029 94.3093 62.7561 94.8117 64.0597 94.7404L64.0694 94.7728C63.5576 95.1326 62.7948 95.084 62.3474 94.6335C61.8806 94.2186 61.636 93.6481 61.5234 93.0776L61.5555 93.0711V93.0679Z" fill="#6F413D"/>
<path d="M64.6777 49.6302C65.344 53.8213 67.1948 61.7918 71.3533 63.6816L71.3372 63.7431C68.4694 63.244 67.0274 60.1614 66.2098 57.6591C65.3472 55.0563 64.8547 52.3562 64.6133 49.6334L64.6777 49.627V49.6302Z" fill="#6F413D"/>
<path d="M61.8742 52.6707C61.9901 55.5101 62.0866 58.8552 62.5179 61.6395C62.9171 64.5859 64.5522 67.3638 67.0885 68.9294C71.6977 71.7559 67.8224 75.7946 64.4556 77.4445L64.4234 77.3894C65.3826 76.6698 66.2935 75.8886 67.0724 75.007C68.1475 73.8303 69.1582 72.0217 68.0026 70.5792C67.6808 70.1384 67.2366 69.7754 66.7602 69.4448C65.7334 68.7544 64.8708 67.8273 64.2271 66.7739C62.4053 63.6135 61.4364 59.9475 61.5201 56.2945C61.533 55.079 61.6328 53.87 61.8066 52.6707H61.871H61.8742Z" fill="#6F413D"/>
<path d="M57.0011 62.2165C56.4539 65.0494 57.0429 68.1806 58.9194 70.3912C60.1715 71.798 61.9 72.6958 63.1295 74.1642C63.4932 74.5369 64.491 75.9178 63.3387 75.8691L63.3419 75.8043C64.2207 75.6714 63.078 74.7541 62.8076 74.4851C61.3914 73.2339 59.6533 72.2712 58.4978 70.7348C57.545 69.4577 56.882 67.9375 56.6888 66.3622C56.5118 64.9652 56.5762 63.5454 56.9367 62.197L56.9978 62.2132L57.0011 62.2165Z" fill="#6F413D"/>
<path d="M65.7238 80.4459C66.3611 82.449 66.0843 84.6499 65.4405 86.6239C64.8966 88.2576 63.8054 89.7356 62.3119 90.6141C61.974 90.7794 61.5877 90.9706 61.2433 91.1067L61.2111 91.0484C62.7883 89.7454 64.1112 88.2997 64.9577 86.4294C65.6852 84.5883 66.0972 82.4361 65.6659 80.4783L65.7206 80.4426L65.7238 80.4459Z" fill="#6F413D"/>
</g>
</svg>
