<svg width="96" height="96" viewBox="0 0 96 96" fill="none" xmlns="http://www.w3.org/2000/svg">
<circle cx="48" cy="48" r="48" fill="#FFFCF3"/>
<mask id="mask0_74_334" style="mask-type:alpha" maskUnits="userSpaceOnUse" x="0" y="0" width="96" height="96">
<circle cx="48" cy="48" r="48" fill="#F0F9FB"/>
</mask>
<g mask="url(#mask0_74_334)">
<path d="M47.0617 8.33078C44.6927 5.55372 32.4841 10.6618 28.3738 22.2877C24.6626 32.7774 27.5594 34.3271 22.6702 45.6469C19.1038 53.8349 27.1088 62.2507 34.4443 58.6825L45.9415 57.3705L47.0617 8.33078Z" fill="white"/>
<path d="M47.0617 8.3309C49.4306 5.55384 63.9342 9.6299 68.0928 22.4441C71.5272 33.0282 69.0616 33.1421 73.9509 44.4588C77.5172 52.6467 69.361 62.4071 62.0255 58.8389L50.5282 57.5269L47.0617 8.3309Z" fill="white"/>
<path d="M47.5445 11.4725C45.1948 8.84844 33.0924 13.6733 29.0143 24.6546C25.3353 34.5582 28.2064 36.0233 23.359 46.7116C19.8248 54.4437 27.759 62.3907 35.0301 59.0211L46.4276 57.784L47.5412 11.4757L47.5445 11.4725Z" fill="#999793"/>
<path d="M47.5445 11.4725C49.8941 8.84849 64.2722 12.6999 68.3953 24.8011C71.8008 34.796 69.5573 35.3136 73.0432 45.4386C75.8113 53.4833 67.8514 62.2508 60.5771 58.8779L50.9788 57.9305L47.5445 11.4758V11.4725Z" fill="#999793"/>
<path d="M64.3365 76.312C63.2196 75.8204 62.2025 75.1269 61.3624 74.2381C53.8564 66.3171 57.6899 50.9342 57.6899 50.9342L48.5133 50.4231H48.5004H48.4875L39.311 50.9342C39.311 50.9342 43.2378 66.7013 35.3552 74.5311C34.6245 75.2571 33.7587 75.8269 32.822 76.2436C31.0936 77.0119 27.5787 78.4281 22.4867 79.7857C14.9935 81.7814 11.0506 84.3729 11.0506 84.3729L48.333 91.9L85.9502 84.3729C85.9502 84.3729 82.0073 81.7814 74.5141 79.7857C69.5734 78.4705 66.1165 77.0966 64.3365 76.3152V76.312Z" fill="white"/>
<path d="M50.1388 10.6911L50.1452 10.4014C50.1452 10.4014 49.524 10.4144 48.5036 10.5055C47.4865 10.4144 46.8621 10.4014 46.8621 10.4014L46.8685 10.6911C41.0941 11.4692 29.8318 14.3081 31.1837 24.6285C31.1837 24.6285 32.5903 43.9801 37.9366 51.6634C43.0898 59.0732 47.4093 59.822 47.4093 59.822H49.5916C49.5916 59.822 53.9079 59.0732 59.0643 51.6634C64.4106 43.9801 65.8171 24.6285 65.8171 24.6285C67.1722 14.3114 55.9067 11.4692 50.1323 10.6911H50.1388Z" fill="white"/>
<path d="M31.3028 43.7262C33.7716 49.2608 36.3304 46.1386 36.3304 46.1386L32.7062 35.4634C32.7062 35.4634 28.3383 37.0782 31.3028 43.7295V43.7262Z" fill="white"/>
<path d="M64.2979 35.4632L60.6736 46.1385C60.6736 46.1385 63.2293 49.2606 65.7013 43.726C68.6689 37.078 64.2979 35.46 64.2979 35.46V35.4632Z" fill="white"/>
<path d="M38.7799 30.9805C36.6523 31.2703 34.6857 33.0772 34.6857 33.0772C35.7157 32.6246 37.2349 31.7554 38.8378 31.5861C41.8602 31.2638 44.5317 32.4879 44.6347 32.4521C44.7377 32.4163 45.2624 32.3479 44.7474 31.4103C44.2324 30.4727 38.7799 30.9838 38.7799 30.9838V30.9805Z" fill="#545351"/>
<path d="M52.1537 31.4069C51.6387 32.3446 52.1633 32.4162 52.2663 32.4487C52.3693 32.4846 55.0409 31.2572 58.0632 31.5827C59.6662 31.7553 61.1854 32.6246 62.2154 33.0738C62.2154 33.0738 60.252 31.2669 58.1212 30.9772C58.1212 30.9772 52.6687 30.4661 52.1537 31.4037V31.4069Z" fill="#545351"/>
<path d="M46.4211 47.1643C46.7237 47.4052 47.0005 47.5094 47.3578 47.555C47.4576 47.568 47.5638 47.5843 47.7344 47.6299C47.7794 47.4606 47.7151 47.2913 47.6153 47.1676C47.3031 46.816 46.7301 46.7964 46.4211 47.1676V47.1643Z" fill="#545351"/>
<path d="M49.2858 47.1642C49.1828 47.2912 49.1184 47.4573 49.1667 47.6265C49.3373 47.581 49.4435 47.5679 49.5433 47.5517C49.9006 47.5028 50.1742 47.4019 50.4799 47.161C50.1709 46.7898 49.598 46.8126 49.2858 47.161V47.1642Z" fill="#545351"/>
<path d="M60.1425 49.7752C62.4246 46.806 63.7185 40.4413 63.9342 36.6875C63.1456 38.8037 62.5501 41.0501 61.9643 43.2313C61.4429 45.1619 60.8346 47.9227 60.1425 49.7752Z" fill="#545351"/>
<path d="M50.3383 59.3142C50.0744 59.477 49.8104 59.643 49.5497 59.8188C54.336 58.4775 58.5621 54.5544 60.1458 49.7751C57.6126 53.6526 54.278 56.931 50.3383 59.3142Z" fill="#545351"/>
<path d="M32.9508 36.6875C33.1664 40.4478 34.4604 46.8093 36.7424 49.7752C36.0472 47.913 35.4453 45.1684 34.9206 43.2313C34.3348 41.0533 33.7394 38.8037 32.9508 36.6875Z" fill="#545351"/>
<path d="M36.7424 49.7751C38.326 54.5544 42.5522 58.4775 47.3385 59.8188C47.0777 59.643 46.8138 59.477 46.5499 59.3142C42.6134 56.9278 39.2788 53.6494 36.7424 49.7751Z" fill="#545351"/>
<path d="M39.8582 55.2773C39.768 57.2372 39.6843 59.1939 39.5749 61.1375C39.3496 63.7746 39.3528 66.4702 38.4773 68.9641C36.736 73.0564 34.2833 75.8986 29.8801 76.9892C25.7859 78.2133 13.3488 81.3648 10.9605 84.3437L11.0345 84.3958C11.7104 83.7154 12.6664 83.4028 13.529 83.0317C16.2327 81.9964 19.0234 81.2053 21.7882 80.349C23.639 79.7826 25.4833 79.19 27.3277 78.5975C29.1784 77.9724 31.0871 77.4645 32.7834 76.4358C35.5612 74.7461 37.3894 71.9951 38.9666 69.2213C39.7616 67.652 39.9998 65.8484 40.135 64.1197C40.3506 61.1733 40.2701 58.2107 39.9386 55.2773H39.8517H39.8582Z" fill="#545351"/>
<path d="M67.1239 76.9892C62.7175 75.8986 60.2713 73.0597 58.5267 68.9641C57.6512 66.4702 57.6545 63.7778 57.4292 61.1375C57.3197 59.1906 57.2393 57.2372 57.1459 55.2773H57.059C56.8337 57.2275 56.7339 59.1939 56.7436 61.1603C56.7886 63.6313 56.853 66.1642 57.706 68.5148C57.8701 68.9217 58.1727 69.485 58.3948 69.8594C59.8979 72.3988 61.6457 74.8763 64.2142 76.4325C65.9105 77.4613 67.8192 77.9692 69.67 78.5943C71.5175 79.1868 73.3618 79.7793 75.2094 80.3458C77.9775 81.202 80.7649 81.9931 83.4686 83.0284C84.3345 83.3996 85.2904 83.7121 85.9631 84.3925L86.0372 84.3405C83.6489 81.3615 71.2085 78.2068 67.1175 76.986L67.1239 76.9892Z" fill="#545351"/>
<path d="M33.8488 46.5229C32.9218 45.9239 32.3778 44.9146 31.8564 43.964C30.4305 41.6036 29.658 38.1103 31.8725 35.9811L31.821 35.9062C29.4939 37.6415 29.7095 41.0827 30.7266 43.5147C31.2931 45.0969 32.2684 46.9168 34.0773 47.2066C34.2254 47.2326 34.4217 47.2164 34.573 47.2001L34.6953 47.1838L34.8112 47.148C35.0429 47.0894 35.2489 46.9592 35.4388 46.8322L35.4002 46.7508C34.8176 46.8973 34.2833 46.7866 33.8456 46.5229H33.8488Z" fill="#545351"/>
<path d="M65.0962 35.8149L65.0447 35.8898C67.0274 37.7748 66.6154 40.8807 65.4663 43.1108C64.8226 44.3057 64.2239 45.66 63.0684 46.4316C62.6306 46.6953 62.0963 46.8092 61.5137 46.6595L61.4751 46.7409C61.665 46.8711 61.871 46.9981 62.1027 47.0567C62.1864 47.086 62.2637 47.1023 62.3409 47.1088C62.489 47.125 62.6885 47.1413 62.8366 47.1153C64.6455 46.8255 65.6208 45.0089 66.1873 43.4234C67.2076 40.9882 67.4201 37.5535 65.0929 35.8149H65.0962Z" fill="#545351"/>
<path d="M44.3676 50.5664C44.2678 52.9886 48.333 52.7282 48.333 52.7282V49.5442C47.8309 48.7921 44.3676 50.5664 44.3676 50.5664Z" fill="#E94943"/>
<path d="M48.0627 49.5407V52.715C48.0627 52.715 52.2148 52.7215 52.2148 50.563C52.2148 50.563 48.5648 48.7887 48.0627 49.5407Z" fill="#E94943"/>
<path d="M45.8064 50.8626C45.3911 51.0026 45.0145 50.7324 44.6991 50.4948C44.3451 50.3092 44.0232 50.3613 43.5661 50.3255L43.4792 50.1985C43.6015 50.4036 43.7657 50.5501 43.9363 50.6803C44.2839 50.9766 44.7377 51.0124 45.169 51.0254C45.7903 51.1687 46.4565 51.3412 47.0906 51.1817C47.4994 51.0873 47.8406 50.9473 48.2655 50.8105L48.2751 50.7519C47.5058 50.2864 46.5885 50.6282 45.8064 50.8659V50.8626Z" fill="#545351"/>
<path d="M43.1509 50.8267C43.5017 51.403 44.683 50.4295 44.683 50.4295C44.683 50.4295 44.02 50.2146 43.8912 50.1853C43.6176 50.1267 42.7936 50.2407 43.1509 50.8267Z" fill="#545351"/>
<path d="M53.0131 50.1561C52.8811 50.1822 52.2889 50.4003 52.2889 50.4003C52.2889 50.4003 53.3832 51.3803 53.7437 50.8105C54.1074 50.231 53.2867 50.1041 53.0131 50.1561Z" fill="#545351"/>
<path d="M51.6065 50.804C51.0368 51.0221 50.4284 50.5695 49.8426 50.524C49.421 50.4719 48.9285 50.4719 48.5519 50.7258L48.5616 50.7844C49.186 50.9863 49.7139 51.2239 50.3673 51.2174C50.7954 51.25 51.246 51.0612 51.658 50.9993C52.3436 51.0091 52.9616 50.7844 53.3478 50.1724C52.6397 50.2082 52.1794 50.3872 51.6097 50.8072L51.6065 50.804Z" fill="#545351"/>
<path d="M45.8643 53.5518C47.2001 54.8019 49.4821 54.8508 50.8018 53.5518C49.9714 53.7829 49.186 53.9945 48.3363 53.9717C47.4865 53.9815 46.7012 53.7601 45.8611 53.5518H45.8643Z" fill="#545351"/>
<path d="M42.24 35.8053C42.2336 35.9225 41.9535 36.4988 41.9535 36.4988C41.9535 36.4988 42.2432 36.7592 42.3527 36.5281C42.4589 36.2969 42.2464 35.6849 42.24 35.8053Z" fill="#545351"/>
<path d="M41.004 36.2611C37.5696 36.3392 36.8229 38.8656 36.8229 38.8656C36.8229 38.8656 37.4795 39.0088 38.1104 38.3935C38.5996 37.9182 39.2305 37.4559 39.2305 37.4559C41.9632 35.4667 44.9566 39.3018 44.9566 39.3018C44.9566 39.3018 43.505 36.2025 41.0008 36.2611H41.004Z" fill="#545351"/>
<path d="M35.8187 39.5524C35.8187 39.5524 37.3315 40.1872 37.8078 38.6766L37.4409 38.3999C37.4409 38.3999 36.7296 39.5589 35.8187 39.5524Z" fill="#545351"/>
<path d="M35.8444 37.6967C35.8444 37.6967 35.8219 37.6707 35.8187 37.6707C35.8251 37.6804 35.8348 37.6869 35.8444 37.6967Z" fill="#545351"/>
<path d="M35.8444 37.6968C35.9635 37.8465 36.5075 38.6018 37.5117 38.2144L37.4699 37.8335C37.4699 37.8335 36.4334 38.3902 35.8444 37.6968Z" fill="#545351"/>
<path d="M36.5236 36.7723C36.6813 36.9709 37.399 37.9639 38.7219 37.456L38.6672 36.9514C38.6672 36.9514 37.3025 37.6871 36.5236 36.769V36.7723Z" fill="#545351"/>
<path d="M36.5236 36.7721C36.5075 36.7526 36.4946 36.7363 36.4914 36.7363C36.501 36.7494 36.5139 36.7591 36.5236 36.7721Z" fill="#545351"/>
<path d="M39.3303 35.177C39.3174 35.3691 39.2144 36.2969 40.209 36.7006L40.4343 36.3914C40.4343 36.3914 39.2981 36.0951 39.3303 35.177Z" fill="#545351"/>
<path d="M40.8431 35.5514C40.8656 35.6686 40.7369 36.2937 40.7369 36.2937C40.7369 36.2937 41.0813 36.4728 41.1295 36.2221C41.1778 35.9714 40.8238 35.4309 40.8431 35.5481V35.5514Z" fill="#545351"/>
<path d="M36.2081 38.7614C36.1116 38.7354 36.0182 38.6996 35.9249 38.6605C36.0955 38.7744 36.2789 38.8754 36.4882 38.9079C36.7167 38.9405 36.9452 38.9014 37.1287 38.7321L36.9581 38.5889C36.7939 38.8037 36.4592 38.8265 36.2081 38.7614Z" fill="#545351"/>
<path d="M38.2327 35.9517C38.4194 36.4205 38.8314 36.8991 39.3882 36.8111L39.3238 36.5963C38.8668 36.7298 38.4516 36.3228 38.2327 35.9517Z" fill="#545351"/>
<path d="M41.0394 36.7949C39.9869 36.7949 39.1307 37.6544 39.1307 38.7223C39.1307 39.7869 39.9837 40.6529 41.0362 40.6529C42.0887 40.6529 42.9449 39.7901 42.9449 38.7255C42.9449 37.6609 42.0919 36.7949 41.0394 36.7949Z" fill="#545351"/>
<path d="M37.4119 36.9642C36.9967 37.4168 36.6555 37.9409 36.4527 38.5204L36.4817 38.5302C36.7553 37.9995 37.1416 37.5307 37.5793 37.1335C38.0396 36.7461 38.5095 36.4336 38.9698 36.0331L38.9569 36.0071C38.3421 36.121 37.811 36.4922 37.4119 36.9642Z" fill="#545351"/>
<path d="M39.8549 35.7532C40.5663 35.7532 41.3162 35.6946 42.063 35.9453C42.7679 36.1959 43.3408 36.5899 43.8526 37.1466L43.8783 37.1303C43.3086 35.535 41.2454 35.4243 39.8517 35.7532H39.8549Z" fill="#545351"/>
<path d="M42.1949 38.8266C41.8924 38.8657 41.68 39.1424 41.7186 39.4484C41.7572 39.7545 42.0308 39.9693 42.3333 39.9303C42.6359 39.8912 42.8483 39.6145 42.8097 39.3084C42.7711 39.0024 42.4975 38.7875 42.1949 38.8266Z" fill="white"/>
<path d="M37.3186 39.9431C37.2349 40.0115 37.2703 40.1287 37.2574 40.2198C37.2317 40.4087 37.2381 40.6008 37.2606 40.7896L37.3154 40.8091C37.3894 40.744 37.4473 40.6724 37.5149 40.6073C37.5761 40.5389 37.6372 40.4705 37.692 40.4054C37.7467 40.337 37.8497 40.2947 37.8465 40.2101C37.8465 40.1287 37.8014 39.9594 37.7016 39.8357C37.5085 39.7999 37.3958 39.8813 37.3186 39.9431Z" fill="#545351"/>
<path d="M38.1651 40.4837C38.1104 40.5293 38.1426 40.6074 38.1394 40.6725C38.1394 40.7995 38.1458 40.9232 38.178 41.0502L38.2198 41.0632C38.3164 40.9753 38.3936 40.8809 38.4709 40.793C38.5063 40.7474 38.5803 40.7213 38.5707 40.6627C38.5707 40.6107 38.5127 40.4935 38.4355 40.4088C38.2939 40.3828 38.2166 40.4381 38.1651 40.4804V40.4837Z" fill="#545351"/>
<path d="M38.8314 40.7995C38.7831 40.8516 38.841 41.0762 38.8668 41.1511C38.9215 41.1706 38.9988 41.0306 39.0438 40.9916C39.0663 40.9655 39.1114 40.9492 39.1018 40.9167C39.0953 40.8906 39.0599 40.806 39.002 40.7571C38.9118 40.7376 38.8636 40.7702 38.8282 40.7995H38.8314Z" fill="#545351"/>
<path d="M39.5137 41.2552C39.7326 41.2747 39.8453 41.0468 39.6682 40.8743C39.4301 40.9459 39.4236 41.0696 39.5137 41.2552Z" fill="#545351"/>
<path d="M40.1156 41.1609C40.106 41.1804 40.0835 41.1967 40.0996 41.213C40.1124 41.2228 40.1671 41.2683 40.2186 41.2749C40.2798 41.2618 40.3088 41.2325 40.3216 41.2065C40.3377 41.1511 40.2219 41.0437 40.1768 41.0144C40.1478 41.0567 40.1382 41.1121 40.1189 41.1609H40.1156Z" fill="#545351"/>
<path d="M54.6353 36.5442C54.7447 36.7754 55.0312 36.5117 55.0312 36.5117C55.0312 36.5117 54.7512 35.9387 54.7415 35.8182C54.7319 35.701 54.5259 36.3131 54.6353 36.5442Z" fill="#545351"/>
<path d="M55.984 36.2643C53.4798 36.2252 52.0507 39.3344 52.0507 39.3344C52.0507 39.3344 55.0151 35.4764 57.7639 37.4461C57.7639 37.4461 58.398 37.9019 58.8905 38.3739C59.5245 38.9827 60.1812 38.8362 60.1812 38.8362C60.1812 38.8362 59.4151 36.3164 55.9807 36.2643H55.984Z" fill="#545351"/>
<path d="M59.5632 38.3804L59.1995 38.6604C59.6887 40.1677 61.1951 39.5231 61.1951 39.5231C60.2842 39.5361 59.5632 38.3836 59.5632 38.3836V38.3804Z" fill="#545351"/>
<path d="M61.1532 37.6642C61.1532 37.6642 61.1693 37.648 61.179 37.6382C61.1757 37.6382 61.1661 37.6512 61.1532 37.6642Z" fill="#545351"/>
<path d="M59.531 37.8138L59.4924 38.1947C60.4998 38.5724 61.0373 37.8138 61.1564 37.6641C60.5706 38.364 59.531 37.8138 59.531 37.8138Z" fill="#545351"/>
<path d="M60.4998 36.7102C60.4998 36.7102 60.4837 36.7265 60.4676 36.746C60.4773 36.733 60.4902 36.7232 60.4998 36.7102Z" fill="#545351"/>
<path d="M58.324 36.9446L58.2725 37.4492C59.6018 37.9473 60.3099 36.9446 60.4676 36.7493C59.6951 37.6739 58.324 36.9479 58.324 36.9479V36.9446Z" fill="#545351"/>
<path d="M56.5537 36.3911L56.7822 36.6971C57.7736 36.2869 57.6641 35.3591 57.6512 35.167C57.6899 36.0818 56.5569 36.3879 56.5569 36.3879L56.5537 36.3911Z" fill="#545351"/>
<path d="M55.8584 36.2318C55.9067 36.4824 56.2511 36.3001 56.2511 36.3001C56.2511 36.3001 56.1191 35.675 56.1384 35.5578C56.1578 35.4406 55.8101 35.9843 55.8584 36.2318Z" fill="#545351"/>
<path d="M60.046 38.5627L59.8754 38.706C60.2327 39.025 60.7348 38.8753 61.076 38.6246C60.7605 38.7744 60.2906 38.8623 60.0428 38.5627H60.046Z" fill="#545351"/>
<path d="M57.6641 36.5898L57.5998 36.8047C58.1566 36.8926 58.5654 36.4075 58.7488 35.9387C58.5332 36.3131 58.118 36.7233 57.6609 36.5898H57.6641Z" fill="#545351"/>
<path d="M55.9518 36.8014C54.8992 36.8111 54.0527 37.6804 54.0624 38.745C54.072 39.8096 54.9314 40.6658 55.9839 40.656C57.0365 40.6463 57.883 39.777 57.8733 38.7124C57.8637 37.6478 57.0043 36.7916 55.9518 36.8014Z" fill="#545351"/>
<path d="M59.5793 36.9447C59.1769 36.4759 58.6426 36.108 58.0278 35.9973L58.015 36.0234C58.9355 36.7722 59.9784 37.394 60.5223 38.5009L60.5513 38.4911C60.3453 37.9149 60.0009 37.394 59.5793 36.9447Z" fill="#545351"/>
<path d="M53.1129 37.1596L53.1386 37.1759C54.1235 36.0137 55.6524 35.5839 57.1234 35.7825C55.8327 35.3788 53.6407 35.5904 53.1129 37.1629V37.1596Z" fill="#545351"/>
<path d="M57.0622 39.0803C56.7597 39.0445 56.4861 39.2626 56.4507 39.5686C56.4153 39.8746 56.6309 40.1514 56.9335 40.1872C57.236 40.223 57.5096 40.0049 57.545 39.6988C57.5804 39.3928 57.3648 39.1161 57.0622 39.0803Z" fill="white"/>
<path d="M59.6951 39.9235C59.6179 39.8616 59.5052 39.7802 59.3121 39.8193C59.2155 39.943 59.1673 40.1156 59.1705 40.1937C59.1673 40.2816 59.2703 40.3239 59.325 40.389C59.4409 40.529 59.5696 40.6625 59.7048 40.7895L59.7595 40.7699C59.782 40.5779 59.7853 40.389 59.7595 40.2002C59.7466 40.109 59.7788 39.9886 59.6984 39.9235H59.6951Z" fill="#545351"/>
<path d="M58.8518 40.4704C58.8003 40.4281 58.7199 40.3727 58.5815 40.3988C58.5074 40.4834 58.4527 40.6006 58.4495 40.6527C58.4398 40.7113 58.5106 40.7374 58.5493 40.783C58.6265 40.8709 58.7038 40.962 58.8003 41.0499L58.8422 41.0369C58.8744 40.9067 58.8808 40.783 58.8776 40.656C58.8776 40.5941 58.9066 40.516 58.8518 40.4672V40.4704Z" fill="#545351"/>
<path d="M58.1888 40.7895C58.1566 40.7602 58.1051 40.7309 58.015 40.7505C57.9602 40.796 57.9216 40.8839 57.9184 40.91C57.9023 40.9295 58.0504 41.0565 58.1276 41.1509C58.192 41.1509 58.1952 40.9686 58.2016 40.91C58.2016 40.8709 58.2242 40.8221 58.1888 40.7895Z" fill="#545351"/>
<path d="M57.3519 40.8708C57.1749 41.0434 57.2907 41.2713 57.5096 41.2485C57.5965 41.0629 57.5901 40.9392 57.3519 40.8708Z" fill="#545351"/>
<path d="M56.8594 41.0305L56.8498 41.011C56.8015 41.0435 56.6888 41.151 56.7049 41.2063C56.7178 41.2324 56.7468 41.2617 56.8079 41.2747C56.8594 41.2682 56.9142 41.2226 56.927 41.2096C56.9431 41.1933 56.9174 41.177 56.9077 41.1575C56.8884 41.1184 56.882 41.0631 56.8594 41.0305Z" fill="#545351"/>
<path d="M48.4232 14.3962C44.7635 19.4912 41.4482 25.9081 42.1917 32.3771C42.3591 33.5719 42.7164 34.7146 43.2217 35.8085L43.1702 35.8378C42.8355 35.3365 42.5265 34.7895 42.2819 34.2295C40.2219 29.1605 42.5812 23.6096 45.0789 19.1559C46.0638 17.4793 47.155 15.8645 48.3781 14.3604L48.4232 14.3994V14.3962Z" fill="#5F5D5B"/>
<path d="M49.3019 15.4348C50.0003 22.2261 52.202 29.9127 57.9474 34.0408C58.3207 34.3273 58.736 34.5389 59.1383 34.7896L59.1158 34.8449C58.6748 34.6757 58.2274 34.5031 57.809 34.2752C53.0324 31.7326 51.0561 26.1263 49.9521 21.1061C49.5787 19.2341 49.3244 17.3426 49.2407 15.4381H49.2987L49.3019 15.4348Z" fill="#5F5D5B"/>
<path d="M46.6143 35.0272C42.5908 29.6944 44.3837 22.2683 47.1099 16.763L48.4006 14.3799L47.1743 16.7956C44.6734 22.2162 43.0447 29.5284 47.0391 34.6137L46.6143 35.0272Z" fill="#5F5D5B"/>
<path d="M54.9121 35.0858C52.9423 33.8324 51.6741 31.8497 50.6666 29.7954C49.6688 27.6532 49.0766 25.3124 48.6903 22.9878C48.6131 22.3725 48.4908 21.2656 48.4135 20.6405C48.2944 19.0648 48.2558 16.8477 48.2944 15.2524L48.3524 17.9449C48.4071 18.8402 48.494 19.7322 48.5616 20.6275C48.6549 21.2558 48.8062 22.34 48.8995 22.952C49.5529 26.3086 50.6409 29.7075 52.8039 32.3934C53.1869 32.8915 53.6858 33.3929 54.1525 33.8129C54.4808 34.0831 54.8349 34.3663 55.176 34.5486L54.9089 35.0826L54.9121 35.0858Z" fill="#5F5D5B"/>
<path d="M48.4875 35.1672C44.0779 29.574 45.7999 20.4224 47.9243 14.1846L47.9661 14.0576C49.2761 14.1455 50.5314 14.5004 51.7095 15.0311C55.4947 16.7142 57.1523 19.8461 58.5074 23.5869C59.8303 27.09 60.767 30.7135 61.9901 34.2459C62.4246 35.4016 62.8173 36.6225 63.6123 37.5829C62.8044 36.6322 62.3989 35.4114 61.9515 34.2589C60.2648 29.5838 59.0997 24.6873 56.8401 20.2466C55.1728 16.9421 51.7224 14.6762 48.0788 14.4157L48.2461 14.2985C47.6893 15.998 47.2162 17.7235 46.8621 19.475C45.9576 24.1794 45.6969 29.447 48.1496 33.7217C48.3717 34.0863 48.6324 34.4607 48.8995 34.7407L48.4875 35.1672Z" fill="#5F5D5B"/>
<path d="M41.4289 13.8199C38.5803 11.9186 30.9423 20.4582 29.9992 27.0509C28.8694 34.9556 32.9347 36.4271 32.9347 36.4271C34.9335 22.7078 47.0842 16.8867 47.0842 16.8867C47.0842 16.8867 44.2775 15.7212 41.4289 13.8199Z" fill="#999793"/>
<path d="M55.16 15.2751C58.0085 13.3738 69.2869 23.1472 69.4092 29.805C69.5734 38.8199 64.1981 47.545 64.1981 47.545C61.0792 22.9617 48.5004 16.5187 48.5004 16.5187C48.5004 16.5187 52.3146 17.1796 55.16 15.2751Z" fill="#999793"/>
<path d="M38.0492 22.4961C37.1255 23.8797 36.25 25.3024 35.471 26.7837C34.499 28.6329 33.5752 30.5603 33.189 32.6439C33.0216 33.3471 32.9637 34.122 32.8928 34.8414C32.8928 35.3656 32.8993 35.906 32.9347 36.4237H33.0216C33.5977 33.5717 34.5473 30.9086 35.6127 28.2325C37.0546 24.8141 38.9794 21.604 41.1199 18.5795L41.0523 18.5242C39.9708 19.7808 38.9891 21.1254 38.046 22.4961H38.0492Z" fill="#545351"/>
<path d="M41.5641 17.2188L41.519 17.1797C40.1672 18.5568 38.8764 19.9926 37.6308 21.4609C36.398 22.9389 35.2168 24.4593 34.1224 26.0383C32.1429 28.9651 30.54 32.4877 30.8618 36.1178C30.894 36.3554 30.9584 36.5898 31.0099 36.821L31.0678 36.8112C31.0356 36.3424 31.0131 35.8768 31.0775 35.4145C32.1815 27.4773 37.5568 21.7246 41.5609 17.2188H41.5641Z" fill="#545351"/>
<path d="M29.5776 23.6877C29.5357 23.2384 32.8928 15.2556 32.8928 15.2556L45.8257 9.12524L51.6644 8.58154L59.0353 12.7325L64.1949 15.7407L66.9179 24.5993L56.2511 16.2551L43.064 17.3815L29.5776 23.6877Z" fill="white"/>
<path d="M29.0787 24.2804C29.0722 24.212 29.143 23.9776 29.2653 23.6227C30.9648 18.7686 34.9271 13.4358 39.4751 11.1211L41.165 10.2616C43.2603 9.31094 44.4448 9.67557 45.6969 9.59093L47.6024 9.00166C47.7955 8.94305 48.1174 8.88771 48.3202 8.88771C49.9199 8.87143 52.5206 9.25234 54.0592 9.88068C55.1181 10.3137 56.1256 10.8606 57.0719 11.5052L57.5708 11.8178C58.5461 12.4266 59.4698 13.1135 60.3389 13.8688C60.7187 14.2009 61.0631 14.5753 61.3624 14.9823C62.4761 16.5157 63.0844 17.2156 64.2947 19.0193L67.6808 25.1008L55.7522 16.8478L42.5651 17.9742L29.0787 24.2804Z" fill="#999793"/>
<path d="M44.9759 18.1629C39.4783 22.4669 34.8884 28.3694 33.2662 35.2941C33.1407 35.7499 33.086 36.222 32.983 36.6875H32.925C32.9186 32.8166 34.5923 29.1084 36.8615 26.0644C37.9849 24.5212 39.2369 23.0822 40.592 21.7506C41.9535 20.4289 43.3955 19.195 44.9437 18.1108L44.9759 18.1597V18.1629Z" fill="#5F5D5B"/>
<path d="M50.1259 17.5476C53.1225 19.5466 55.7168 22.2195 57.6126 25.3091C58.5332 26.875 59.2896 28.5321 59.9559 30.2186C60.635 31.892 61.0502 33.6663 61.5877 35.3853C62.6499 38.807 63.799 42.2286 65.5886 45.2629C66.0296 46.0247 66.522 46.7409 67.066 47.4474C67.6164 48.1962 68.2923 48.958 68.4501 49.9445C68.6722 51.3542 68.1765 53.1188 66.7634 53.682C66.3225 53.861 65.8558 53.9359 65.3987 53.8871V53.7992C67.3267 53.6266 68.0767 51.836 67.7065 50.1008C67.5456 49.3455 66.9405 48.7139 66.3708 48.0074C63.461 44.4685 62.0577 39.9464 61.0212 35.5448C60.6125 33.7933 60.3775 31.9994 59.7048 30.3227C58.3851 26.9987 55.9872 24.238 53.7502 21.513C52.585 20.1717 51.3586 18.8759 50.0712 17.6225L50.1259 17.5509V17.5476Z" fill="#5F5D5B"/>
<path d="M46.2924 7.85242C40.7594 7.8166 35.9184 11.502 32.5291 15.6399C29.0754 19.996 27.3566 25.4882 26.5616 30.9512C26.3621 32.3251 26.2011 33.7152 26.1078 35.0826C26.0595 36.4858 26.0337 37.9118 25.7602 39.2987C25.2902 42.1018 24.2763 44.7746 22.8472 47.2164C21.1091 50.9083 22.7378 55.5541 25.9661 57.8688C27.0605 58.6925 28.2997 59.3078 29.5872 59.7766L29.5615 59.8613C26.8416 59.2134 24.2345 57.667 22.7056 55.222C21.1574 52.7575 20.7615 49.5084 21.9942 46.7997C23.3493 44.4133 24.4244 41.8576 24.9362 39.1391C25.2291 37.7685 25.2902 36.4337 25.3997 35.024C25.7022 32.2274 26.3299 29.4829 27.0476 26.7709C28.3898 22.0893 29.9091 17.1929 33.2952 13.5465C36.1631 10.4862 39.9772 8.02496 44.2163 7.69289C44.9148 7.64405 45.6164 7.63754 46.3053 7.76777L46.2924 7.85567V7.85242Z" fill="#5F5D5B"/>
<path d="M49.9134 7.68639C55.4561 7.172 60.9537 10.9616 64.3655 15.1125C67.7999 19.5988 69.2741 25.2376 70.2236 30.7363C70.3909 31.7326 70.5422 32.8427 70.6839 33.8487C70.9735 35.5319 71.5851 37.1727 72.084 38.8103C72.7471 40.7767 73.5517 42.7008 74.3435 44.6216C74.6332 45.276 74.8875 45.9923 75.0098 46.6988C76.0945 52.637 72.5217 58.4516 66.6508 59.7832L66.625 59.6985C67.9125 59.2297 69.1453 58.6014 70.2171 57.7451C73.4198 55.2709 74.8939 50.8171 74.1021 46.8843C73.9798 46.2364 73.7288 45.5951 73.468 44.9928C72.6569 43.0524 71.9134 41.0893 71.2825 39.074C70.7997 37.3746 70.2558 35.6882 70.0208 33.9269C69.9307 32.9176 69.847 31.8042 69.7375 30.8015C69.303 26.67 68.3181 22.5158 66.1841 18.9281C63.4482 14.3442 58.942 10.3235 53.9304 8.51984C52.6461 8.08032 51.2943 7.76453 49.9231 7.77429L49.9134 7.68639Z" fill="#5F5D5B"/>
<path d="M26.2558 48.6357C25.8181 53.2391 27.0637 56.9896 31.0936 59.4802L31.0646 59.5649C27.3051 59.0602 25.8728 55.2869 25.8277 51.8913C25.8245 50.7876 25.9179 49.6872 26.1689 48.6194L26.2558 48.6357Z" fill="#5F5D5B"/>
<path d="M62.3667 35.9648C62.3409 36.2741 62.4729 36.6095 62.5566 36.9155C62.8656 37.8596 63.2454 38.7777 63.6509 39.6828C64.7807 42.0692 65.991 44.4458 67.655 46.5001C68.508 47.5126 69.509 48.3949 70.6291 49.0818C71.1988 49.44 71.7492 49.8534 72.2063 50.3776C74.8939 53.4021 72.319 57.4098 69.3545 59.0148C68.1958 59.6464 66.7828 60.1933 65.4727 59.7668L65.4888 59.7082C66.7892 59.9199 68.0445 59.2915 69.1131 58.6078C71.1055 57.2502 73.1751 54.9257 72.6698 52.3505C72.4026 51.1296 71.5046 50.1041 70.4585 49.339C69.3706 48.5479 68.4082 47.6135 67.5102 46.6271C65.682 44.6704 64.1885 42.3785 63.2325 39.8586C62.8109 38.7614 62.4343 37.6317 62.2894 36.4565C62.2798 36.2872 62.2508 36.1179 62.3152 35.9355L62.3699 35.9616L62.3667 35.9648Z" fill="#5F5D5B"/>
<path d="M69.4414 48.6162C72.1323 52.7216 71.3662 57.7222 66.6572 59.7668L66.625 59.7147C70.7547 56.2377 71.643 53.5257 69.4414 48.6162Z" fill="#5F5D5B"/>
<path d="M32.9765 22.9356C30.5045 27.2721 29.5808 32.4584 30.6977 37.3646L30.643 37.3842C28.8566 33.8844 29.7256 29.7106 31.1547 26.2434C31.6536 25.0811 32.233 23.9546 32.9315 22.9031L32.9797 22.9356H32.9765Z" fill="#5F5D5B"/>
<path d="M49.0701 16.356C49.0701 16.356 53.557 30.1631 61.3109 34.3955C69.0648 38.6278 64.9062 28.9651 64.9062 28.9651L49.0701 16.356Z" fill="#999793"/>
<path d="M74.1182 52.422C75.5956 50.8039 73.7159 48.5738 72.5475 47.3497C71.1763 45.8814 69.4833 44.7907 67.9705 43.482C64.9899 40.6854 63.21 36.9218 61.6843 33.1876C60.9408 31.3059 60.3131 29.372 59.8078 27.4121C58.913 23.5444 57.03 19.8427 54.101 17.1731C52.6912 15.9588 50.6505 14.6988 48.8126 15.6918L48.7804 15.643C50.5862 14.4026 52.9036 15.5876 54.41 16.7987C57.5869 19.3902 59.5084 23.31 60.3067 27.2884C60.7637 29.2483 61.2691 31.1952 61.9321 33.0965C63.2293 36.8665 65.2732 40.5096 68.3052 43.1011C70.6259 44.9926 73.3135 46.7376 74.5785 49.5928C74.9808 50.5109 75.0323 51.8262 74.1504 52.4773L74.1182 52.4285V52.422Z" fill="#5F5D5B"/>
<path d="M50.3641 18.5145C52.0764 22.7045 54.1461 26.8261 56.9657 30.3585C58.3948 32.0905 60.0524 33.6467 62.0963 34.4964C63.1134 34.9652 64.1498 35.3982 65.2088 35.7564C66.2452 36.0657 67.3782 36.4856 68.4565 36.2382L68.4887 36.2903C67.4072 36.7265 66.1873 36.388 65.0961 36.1568C63.5705 35.7564 62.0899 35.2094 60.6865 34.4867C60.0556 34.1318 59.4666 33.6858 58.9226 33.2072C56.3831 30.8729 54.5709 27.8647 53.0034 24.8239C51.9831 22.7826 51.0786 20.6827 50.3093 18.534L50.3641 18.5112V18.5145Z" fill="#5F5D5B"/>
<path d="M61.9386 48.2222C63.1263 51.5918 62.9428 56.9929 58.8164 58.077L58.7746 57.9989C60.7959 56.1692 62.1414 53.7698 62.0866 50.996C62.1092 50.0811 62.0287 49.1565 61.8549 48.2482L61.9386 48.2222Z" fill="#5F5D5B"/>
<path d="M63.593 46.321C65.2893 49.6288 65.7013 54.2811 62.5437 56.8205C63.1939 56.1661 63.7346 55.3978 64.0501 54.5383C65.0157 51.9696 64.1724 49.0395 62.8334 46.7801L63.593 46.321Z" fill="#5F5D5B"/>
<path d="M60.5545 48.7529C61.7422 52.1225 61.5588 57.5236 57.4324 58.6078L57.3905 58.5296C59.4119 56.7 60.7573 54.3005 60.7026 51.5267C60.7251 50.6119 60.6447 49.6873 60.4708 48.779L60.5545 48.7529Z" fill="#5F5D5B"/>
<path d="M34.6342 48.1376C33.9035 52.0542 34.7307 55.1893 37.7145 57.8883L37.6726 57.9664C34.528 57.1883 33.6911 53.7308 33.9582 50.8658C34.058 49.9217 34.235 48.9971 34.5473 48.1116L34.6309 48.1376H34.6342Z" fill="#5F5D5B"/>
<path d="M33.6557 46.6661C31.7985 49.6841 31.1161 54.0401 33.9454 56.7065C33.2469 56.1074 32.6321 55.3749 32.2362 54.5122C31.4058 52.7834 31.4476 50.7454 31.9015 48.9125C32.1364 47.9814 32.4454 47.0926 32.8961 46.207L33.6557 46.6661Z" fill="#5F5D5B"/>
<path d="M36.0214 48.665C35.2908 52.5815 36.118 55.7167 39.1018 58.4156L39.0599 58.4937C35.9152 57.7156 35.0784 54.2582 35.3455 51.3932C35.4453 50.4491 35.6223 49.5245 35.9345 48.6389L36.0182 48.665H36.0214Z" fill="#5F5D5B"/>
<path d="M47.7794 10.0954C47.7794 10.9679 47.8374 11.8599 47.7344 12.7194C47.6603 13.0027 47.5638 13.2827 47.3674 13.5529L47.3095 13.5464C47.0649 12.9473 47.1357 12.3776 47.3095 11.7916C47.4286 11.2186 47.567 10.6521 47.7215 10.0889L47.7794 10.0954Z" fill="#5F5D5B"/>
<path d="M89.7934 87.4657C89.3235 84.77 87.5854 82.5301 85.2132 81.4948C82.7026 80.4009 78.7918 78.9163 73.7288 77.6792L69.6828 80.1763L48.7901 88.9307L23.5779 77.7411L24.3439 78.3727L23.2206 77.6792C18.1575 78.9163 14.2468 80.3977 11.7362 81.4948C9.36398 82.5301 7.62587 84.77 7.15594 87.4657C6.51541 91.1315 6.3062 95.4973 6.3062 95.4973H90.6399C90.6399 95.4973 90.4307 91.1348 89.7902 87.4657H89.7934Z" fill="#F7DFEC"/>
<path d="M6.34804 95.4387C5.78798 93.0621 5.90064 90.4934 6.66669 88.1721C7.55828 85.8769 8.95199 83.8226 10.7384 82.1427C12.5409 80.4302 15.0128 79.8279 17.311 79.141C19.606 78.5094 21.9202 77.9462 24.2924 77.5718L24.3182 77.6662C21.0415 79.1215 17.62 80.1763 14.1824 81.1074C10.4326 82.2827 8.22455 84.4672 7.43275 88.4098C6.85016 90.679 6.55404 93.0165 6.44138 95.429L6.34482 95.442L6.34804 95.4387Z" fill="#545351"/>
<path d="M23.845 78.0015C27.0766 79.2386 33.5527 81.7682 36.765 83.0477C41.0974 84.6886 45.3718 86.4466 49.4274 88.7256L49.392 88.8167C44.9309 87.5242 40.6789 85.7108 36.4721 83.7705C33.3113 82.377 26.9543 79.5284 23.8096 78.0926L23.845 78.0015Z" fill="#545351"/>
<path d="M90.5562 95.4876C90.4436 93.0751 90.1442 90.7376 89.5649 88.4684C89.2848 87.3387 88.9726 86.1732 88.3514 85.1574C87.1637 83.0901 85.0007 81.8562 82.8152 81.166C79.3776 80.2349 75.9593 79.1801 72.6795 77.7248L72.7052 77.6304C75.0742 78.0015 77.3917 78.568 79.6866 79.1996C81.9848 79.8865 84.4568 80.4888 86.2592 82.2013C87.1766 83.0217 87.933 83.9821 88.6121 84.9881C89.8353 86.7331 90.7365 88.7777 90.9135 90.9394C91.0551 92.4631 91.0262 94.016 90.6496 95.5006L90.553 95.4876H90.5562Z" fill="#545351"/>
<path d="M73.5163 78.1284C70.5454 79.5642 64.5618 82.4096 61.5717 83.803C57.603 85.7434 53.5892 87.5568 49.3566 88.8493L49.318 88.7614C53.1257 86.4889 57.162 84.7276 61.2627 83.0868C64.2947 81.8073 70.4264 79.2744 73.4777 78.0405L73.5163 78.1284Z" fill="#545351"/>
</g>
</svg>
