<svg width="298" height="92" viewBox="0 0 298 92" fill="none" xmlns="http://www.w3.org/2000/svg">
<mask id="path-1-outside-1_74_938" maskUnits="userSpaceOnUse" x="0" y="0" width="297" height="92" fill="black">
<rect fill="white" width="297" height="92"/>
<path d="M284.5 2C290.023 2 294.5 6.47718 294.5 12V71.9336C294.5 77.4564 290.023 81.9336 284.5 81.9336H152.662L148.817 89.2881C148.443 90.0034 147.419 90.0035 147.045 89.2881L143.201 81.9336H12C6.47715 81.9336 2 77.4564 2 71.9336V12C2.00002 6.47717 6.47717 2 12 2H284.5Z"/>
</mask>
<path d="M284.5 2C290.023 2 294.5 6.47718 294.5 12V71.9336C294.5 77.4564 290.023 81.9336 284.5 81.9336H152.662L148.817 89.2881C148.443 90.0034 147.419 90.0035 147.045 89.2881L143.201 81.9336H12C6.47715 81.9336 2 77.4564 2 71.9336V12C2.00002 6.47717 6.47717 2 12 2H284.5Z" fill="white"/>
<path d="M294.5 12L296.5 12L296.5 12L294.5 12ZM284.5 81.9336L284.5 83.9336H284.5L284.5 81.9336ZM152.662 81.9336V79.9336C151.918 79.9336 151.235 80.3472 150.89 81.007L152.662 81.9336ZM148.817 89.2881L150.59 90.2151L150.59 90.2147L148.817 89.2881ZM147.045 89.2881L145.272 90.2145L145.273 90.2148L147.045 89.2881ZM143.201 81.9336L144.974 81.0072C144.629 80.3473 143.946 79.9336 143.201 79.9336V81.9336ZM2 12L0 12V12H2ZM12 2L12 0L12 0L12 2ZM284.5 2V4C288.918 4 292.5 7.58174 292.5 12L294.5 12L296.5 12C296.5 5.37262 291.127 0 284.5 0V2ZM294.5 12H292.5V71.9336H294.5H296.5V12H294.5ZM294.5 71.9336H292.5C292.5 76.3519 288.918 79.9336 284.5 79.9336L284.5 81.9336L284.5 83.9336C291.127 83.9336 296.5 78.561 296.5 71.9336H294.5ZM284.5 81.9336V79.9336H152.662V81.9336V83.9336H284.5V81.9336ZM152.662 81.9336L150.89 81.007L147.045 88.3615L148.817 89.2881L150.59 90.2147L154.435 82.8602L152.662 81.9336ZM148.817 89.2881L147.045 88.361C147.419 87.6463 148.443 87.6452 148.817 88.3614L147.045 89.2881L145.273 90.2148C146.395 92.3619 149.467 92.3605 150.59 90.2151L148.817 89.2881ZM147.045 89.2881L148.817 88.3617L144.974 81.0072L143.201 81.9336L141.429 82.86L145.272 90.2145L147.045 89.2881ZM143.201 81.9336V79.9336H12V81.9336V83.9336H143.201V81.9336ZM12 81.9336V79.9336C7.58172 79.9336 4 76.3519 4 71.9336H2H0C0 78.561 5.37258 83.9336 12 83.9336V81.9336ZM2 71.9336H4V12H2H0V71.9336H2ZM2 12L4 12C4.00002 7.58173 7.58174 4 12 4L12 2L12 0C5.37259 3.20112e-07 2.37478e-05 5.37261 0 12L2 12ZM12 2V4H284.5V2V0H12V2Z" fill="#3895AC" mask="url(#path-1-outside-1_74_938)"/>
</svg>
